<svg xmlns="http://www.w3.org/2000/svg" viewBox="0 0 74.16 74.16"><defs><style>.cls-1{fill:#c2fff8;}.cls-2{fill:#0a0e10;}</style></defs><title>Asset 9</title><g id="Layer_2" data-name="Layer 2"><g id="Layer_1-2" data-name="Layer 1"><circle class="cls-1" cx="37.08" cy="37.08" r="37.08"/><path class="cls-2" d="M42.89,52.56h-9a4.18,4.18,0,0,1,.92,3.65,4,4,0,0,1-1.68,2.49,4.06,4.06,0,0,1-5-.23,4,4,0,0,1-1.47-2.83,4.12,4.12,0,0,1,1-3.09h-1a1.16,1.16,0,0,1-1.15-1.66c.66-1.84,1.31-3.68,2-5.5a5.22,5.22,0,0,1,.69-1L27.49,42q-3.06-8.81-6.11-17.62a1,1,0,0,0-.65-.69c-1.78-.67-3.55-1.38-5.32-2.08a1.36,1.36,0,0,1-.94-1.21,1.31,1.31,0,0,1,.69-1.29A1.34,1.34,0,0,1,16.39,19l6.4,2.52a1.47,1.47,0,0,1,.86,1c.36,1.07.75,2.13,1.1,3.2a.43.43,0,0,0,.5.35H55.82a3,3,0,0,1,.63,0,1.35,1.35,0,0,1,1,1.7c-.62,2-1.27,4-1.91,6q-1.87,5.84-3.75,11.68a1.51,1.51,0,0,1-1.74,1.29H30.45c-.27,0-.54,0-.87-.05l-1.26,3.51H50c.16,0,.33,0,.49,0a1.14,1.14,0,0,1,0,2.29c-.42,0-.84,0-1.34,0a4.15,4.15,0,0,1,1,3.62,4,4,0,0,1-1.67,2.53,4.07,4.07,0,0,1-5.22-.39A4.15,4.15,0,0,1,42.89,52.56Zm-8.6-23.72H25.87c0,.13.06.23.09.32.28.81.57,1.62.83,2.43a.41.41,0,0,0,.47.34h6.67l.35,0Zm20,0h-8c0,1,0,1.94,0,2.9,0,.07.19.18.29.18q3.24,0,6.49,0a.42.42,0,0,0,.32-.22C53.64,30.77,53.94,29.83,54.25,28.84ZM37.1,34.71v3.52h6.33V34.71Zm-2.8,0H27.91c0,.11,0,.19.07.26.34,1,.69,2,1,3a.39.39,0,0,0,.45.32H34.3Zm11.94,0v3.54c1.62,0,3.21,0,4.8,0,.1,0,.24-.16.28-.27.31-.92.61-1.85.91-2.78,0-.15.08-.31.13-.48Zm-2.79-5.87H37.1v3s.06,0,.08,0h6c.23,0,.23-.14.23-.3,0-.71,0-1.41,0-2.12C43.45,29.29,43.45,29.07,43.45,28.84Zm0,12.21H37.1V44h6.33Zm-9.14,3V41H30.08c.34,1,.66,1.91,1,2.84a.28.28,0,0,0,.22.12Zm11.95-3v3c1,0,2,0,3,0,.08,0,.2-.14.24-.24.2-.56.37-1.14.56-1.71.11-.33.2-.66.31-1ZM46,53.47a1.84,1.84,0,1,0,1.85,1.83A1.85,1.85,0,0,0,46,53.47ZM29,55.31a1.83,1.83,0,1,0,1.84-1.84A1.84,1.84,0,0,0,29,55.31Z"/></g></g></svg>