<svg xmlns="http://www.w3.org/2000/svg" viewBox="0 0 27.76 104.47"><defs><style>.cls-1{fill:#c2fff8;}</style></defs><title>Asset 51</title><g id="Layer_2" data-name="Layer 2"><g id="Layer_1-2" data-name="Layer 1"><path class="cls-1" d="M19.4,4.49c0,5.11,0,10.22,0,15.34,0,2-.12,4-.08,6a8.76,8.76,0,0,0,.44,2.69,4.65,4.65,0,0,0,2.05,2.26c.77.49,1.56.95,2.36,1.39.52.29,1.08.52,1.61.78a3.16,3.16,0,0,1,2,3.2c-.15,3.52-.27,7-.41,10.56-.07,1.78-.14,3.56-.22,5.33-.13,2.73-.27,5.45-.4,8.18,0,.93-.08,1.87-.12,2.8q-.2,4.72-.41,9.45c0,1.13-.08,2.25-.12,3.38-.08,2.61-.14,5.21-.22,7.82q-.15,4.75-.32,9.51-.14,4-.32,8.08a4.74,4.74,0,0,1-.16,1c-.19.72-.48,1-1.25,1a14,14,0,0,0-3.94.94,3.7,3.7,0,0,1-1.39.29q-5,0-9.93-.1a3.14,3.14,0,0,1-1.17-.3,11.11,11.11,0,0,0-3.88-.95,1.4,1.4,0,0,1-1.39-1.73,4.14,4.14,0,0,0,0-.58c0-1.67,0-3.34,0-5-.11-3.29-.26-6.58-.39-9.87,0-1.18-.08-2.36-.12-3.54-.08-2.54-.13-5.07-.23-7.61C1.25,71.38,1.09,68,1,64.59c0-.95-.06-1.89-.09-2.84C.79,59.21.72,56.68.64,54.14Q.49,49.39.32,44.63c-.07-1.9-.14-3.8-.21-5.7,0-1.09-.06-2.18-.11-3.27a2.47,2.47,0,0,1,1.63-2.41c1-.5,2.16-.8,3.13-1.39a12.43,12.43,0,0,0,2.32-2A3.65,3.65,0,0,0,8,28.34a11.93,11.93,0,0,0,.34-2.65,34.65,34.65,0,0,0,0-4.44c-.43-4.57-.07-9.15-.2-13.72Q8.08,5,8.07,2.4C8.06.92,8.16.77,9.59.46A19.94,19.94,0,0,1,18,.45a4.39,4.39,0,0,1,.56.17c.65.23.82.44.82,1.12,0,.92,0,1.83,0,2.75Z"/></g></g></svg>