<svg xmlns="http://www.w3.org/2000/svg" viewBox="0 0 280 120"><defs><style>.cls-1{fill:#07423f;}.cls-2{fill:#c2fff8;}</style></defs><title>Asset 2</title><g id="Layer_2" data-name="Layer 2"><g id="Layer_1-2" data-name="Layer 1"><rect class="cls-1" width="280" height="120"/><path class="cls-2" d="M73.46,42.78c0-6.74,5.15-11.66,12.22-11.66a11.44,11.44,0,0,1,8.76,3.52l-2,2A9,9,0,0,0,85.81,34c-5.28,0-9.09,3.68-9.09,8.76s3.81,8.76,9.06,8.76a9.67,9.67,0,0,0,5.35-1.46V42.65h3.13v8.9a13.5,13.5,0,0,1-8.64,2.9C78.61,54.45,73.46,49.53,73.46,42.78Z"/><path class="cls-2" d="M89,64.91H81.35L71.22,88.1h7.94l1.55-4h8.81l1.56,4h8.08ZM82.87,78.43l2.25-5.83,2.25,5.83Z"/><polygon class="cls-2" points="107.91 82.03 118.38 82.03 118.38 88.1 100.09 88.1 100.09 64.91 107.91 64.91 107.91 82.03"/><path class="cls-2" d="M113.54,46.53a7.19,7.19,0,0,0,5-7.2c0-5-3.58-8-9.51-8h-8.9V54.19h3.25V47.25H109c.49,0,1,0,1.43-.07l4.92,7H119ZM109,44.48h-5.54V34.22H109c4.17,0,6.36,1.86,6.36,5.12S113.12,44.48,109,44.48Z"/><polygon class="cls-2" points="115.39 64.91 136.79 64.91 136.79 70.97 130 70.97 130 88.1 122.18 88.1 122.18 70.97 115.39 70.97 115.39 64.91"/><path class="cls-2" d="M123.32,44.35v-13h3.25V44.22c0,5.05,2.32,7.33,6.42,7.33s6.45-2.28,6.45-7.33V31.38h3.16v13c0,6.61-3.61,10.1-9.64,10.1S123.32,51,123.32,44.35Z"/><rect class="cls-2" x="139.37" y="64.91" width="7.82" height="23.18"/><path class="cls-2" d="M157.86,31.38H149V54.19h3.26V47.28h5.64c5.93,0,9.51-3,9.51-8S163.8,31.38,157.86,31.38Zm-.1,13.06h-5.54V34.22h5.54c4.17,0,6.36,1.86,6.36,5.12S161.94,44.44,157.77,44.44Z"/><path class="cls-2" d="M165.34,64.91H173V77.66c0,7-4.18,11-11.3,11s-11.3-4-11.3-11V64.91h7.82V77.44c0,3.54,1.36,4.87,3.54,4.87s3.54-1.33,3.54-4.87Z"/><path class="cls-2" d="M182.47,31.12c-7,0-12.15,5-12.15,11.66s5.14,11.66,12.15,11.66,12.09-5,12.09-11.66S189.41,31.12,182.47,31.12Zm0,20.43a8.76,8.76,0,1,1,8.84-8.76A8.58,8.58,0,0,1,182.47,51.55Z"/><rect class="cls-2" x="72.69" y="57.41" width="121.73" height="3.14"/><path class="cls-2" d="M195.71,80.81c0,4.24-3.61,7.81-10.8,7.81a20.79,20.79,0,0,1-10.1-2.38l2.52-5.7A15.88,15.88,0,0,0,185,82.66c2.22,0,3-.46,3-1.25,0-2.92-12.81-.56-12.81-9.21,0-4.3,3.61-7.81,10.79-7.81a18.39,18.39,0,0,1,8.74,2l-2.35,5.66a14.31,14.31,0,0,0-6.46-1.73c-2.28,0-3,.66-3,1.46C182.89,74.59,195.71,72.27,195.71,80.81Z"/><path class="cls-2" d="M199.67,68.46l.91-2.2.92-2.21-1.72-1V52h-2.5a17,17,0,0,0,2.64-9.25,16.79,16.79,0,0,0-5-12.17,18.33,18.33,0,0,0-25.12.22c-2.62-3.08-6.82-4.83-11.91-4.83H117.95v2.28A17,17,0,0,0,109,26H94.77v2A18.81,18.81,0,0,0,73.2,30.54a16.75,16.75,0,0,0-5.12,12.25A17,17,0,0,0,70.73,52H67.31V65.92H75l-8.76,20L64.64,89.7,63,93.47H82.84L84.17,90l.23-.6h1.44l.23.6.67,1.72.66,1.72h65.16V91.78A18.43,18.43,0,0,0,161.72,94a17.61,17.61,0,0,0,10.46-3.06A26,26,0,0,0,184.91,94c5,0,9.11-1.38,12-4a12.23,12.23,0,0,0,4.15-9.21,11.26,11.26,0,0,0-3.19-8Zm-1.29,12.35c0,5.22-4.17,10.5-13.48,10.5a23.39,23.39,0,0,1-11.51-2.78l-1.45-.89c-2.41,2.36-5.91,3.67-10.23,3.67-5.41,0-9.54-2.06-11.85-5.67v5.14H136.68V73.66h-4V90.79H89.24l-.67-1.72-.89-2.32H82.55l-.89,2.32L81,90.79H67.1L68.74,87,78.88,63.84l.27-.61H70V54.72h7.12A14.3,14.3,0,0,1,75,53.09a14.54,14.54,0,0,1,0-20.61,15.24,15.24,0,0,1,10.61-4,14,14,0,0,1,10.77,4.41l1,1.13V28.69H109c5.86,0,10.08,2.6,11.59,6.89V28.69h37.23c5.88,0,10.12,2.63,11.61,7a14.64,14.64,0,0,1,13-7.22c8.42,0,14.77,6.17,14.77,14.35a14,14,0,0,1-6.36,11.94h6.22v8.51h-2.81a15.18,15.18,0,0,1,1.74.83l2.08,1.17-.91,2.2-2.36,5.67-.18.45A8.43,8.43,0,0,1,198.39,80.81Z"/><path class="cls-2" d="M91.13,50.09a9.67,9.67,0,0,1-5.35,1.46c-5.25,0-9.06-3.75-9.06-8.76S80.53,34,85.81,34a9,9,0,0,1,6.61,2.64l2-2a11.44,11.44,0,0,0-8.76-3.52c-7.07,0-12.22,4.92-12.22,11.66s5.15,11.66,12.16,11.66a13.5,13.5,0,0,0,8.64-2.9v-8.9H91.13Z"/><path class="cls-2" d="M113.54,46.53a7.19,7.19,0,0,0,5-7.2c0-5-3.58-8-9.51-8h-8.9V54.19h3.25V47.25H109c.49,0,1,0,1.43-.07l4.92,7H119ZM109,44.48h-5.54V34.22H109c4.17,0,6.36,1.86,6.36,5.12S113.12,44.48,109,44.48Z"/><path class="cls-2" d="M139.45,31.38V44.22c0,5.05-2.34,7.33-6.45,7.33s-6.42-2.28-6.42-7.33V31.38h-3.25v13c0,6.61,3.65,10.1,9.64,10.1s9.64-3.48,9.64-10.1v-13Z"/><path class="cls-2" d="M157.86,31.38H149V54.19h3.26V47.28h5.64c5.93,0,9.51-3,9.51-8S163.8,31.38,157.86,31.38Zm-.1,13.06h-5.54V34.22h5.54c4.17,0,6.36,1.86,6.36,5.12S161.94,44.44,157.77,44.44Z"/><path class="cls-2" d="M182.47,31.12c-7,0-12.15,5-12.15,11.66s5.14,11.66,12.15,11.66,12.09-5,12.09-11.66S189.41,31.12,182.47,31.12Zm0,20.43a8.76,8.76,0,1,1,8.84-8.76A8.58,8.58,0,0,1,182.47,51.55Z"/><path class="cls-2" d="M89,64.91H81.35L71.22,88.1h7.94l1.55-4h8.81l1.56,4h8.08ZM82.87,78.43l2.25-5.83,2.25,5.83Z"/><path class="cls-2" d="M107.91,82V64.91h-7.81V88.1h18.28V82Z"/><path class="cls-2" d="M115.39,64.91V71h6.79V88.1H130V71h6.79V64.91Z"/><path class="cls-2" d="M139.37,64.91V88.1h7.82V64.91Z"/><path class="cls-2" d="M165.34,64.91V77.44c0,3.54-1.36,4.87-3.54,4.87s-3.54-1.33-3.54-4.87V64.91h-7.82V77.66c0,7,4.18,11,11.3,11s11.3-4,11.3-11V64.91Z"/><path class="cls-2" d="M182.89,71.8c0-.79.73-1.46,3-1.46a14.31,14.31,0,0,1,6.46,1.73l2.35-5.66a18.39,18.39,0,0,0-8.74-2c-7.18,0-10.79,3.51-10.79,7.81,0,8.65,12.81,6.29,12.81,9.21,0,.79-.79,1.25-3,1.25a15.88,15.88,0,0,1-7.65-2.12l-2.52,5.7a20.79,20.79,0,0,0,10.1,2.38c7.18,0,10.8-3.58,10.8-7.81C195.71,72.27,182.89,74.59,182.89,71.8Z"/><rect class="cls-2" x="72.69" y="57.41" width="121.73" height="3.14"/></g></g></svg>