<svg xmlns="http://www.w3.org/2000/svg" viewBox="0 0 1064.08 112.99"><defs><style>.cls-1{fill:#c2fff8;}.cls-2,.cls-3{fill:#141414;}.cls-3{font-size:53.63px;font-family:Montserrat-SemiBold, Montserrat;font-weight:700;letter-spacing:0.05em;}</style></defs><title>Asset 27</title><g id="Layer_2" data-name="Layer 2"><g id="Layer_1-2" data-name="Layer 1"><path class="cls-1" d="M1064.08,56.5A56.52,56.52,0,0,1,1007.6,113H56.48a56.5,56.5,0,0,1,0-113H1007.6A56.49,56.49,0,0,1,1064.08,56.5Z"/><path class="cls-2" d="M282.95,26.56A33.06,33.06,0,0,0,256,78.82l-3.8,12.35,12.61-3.42.47-.12a33.08,33.08,0,1,0,17.64-61.06Zm11.26,51.35s-7.81.26-16.59-6.52a47.07,47.07,0,0,1-11.53-13.22c-.15-.23-.29-.5-.41-.7a15.35,15.35,0,0,1-1.84-7.14c0-.29,0-.56,0-.85a8.46,8.46,0,0,1,5.24-7.58s3.22-.5,3.77,0l3.57,8s1.17,1.78,0,3.22-2.14,2.55-2.14,2.55-1,.76,0,2.25,5.27,8,12.61,10.94a2.47,2.47,0,0,0,3.25-1.26l2.31-3s.56-.76,2.34,0,7.43,3.51,7.43,3.51,1,.32.82,1.84S302.31,77.3,294.21,77.91Z"/><text class="cls-3" transform="translate(378.51 81.3)"><tspan xml:space="preserve">(212) 569 2844   </tspan></text></g></g></svg>