<svg xmlns="http://www.w3.org/2000/svg" viewBox="0 0 98.04 102.18"><defs><style>.cls-1{fill:#c2fff8;}</style></defs><title>Asset 17</title><g id="Layer_2" data-name="Layer 2"><g id="Layer_1-2" data-name="Layer 1"><path class="cls-1" d="M63.83,55.12a29.57,29.57,0,0,1-29.62,0,49.44,49.44,0,0,1,29.62,0Z"/><path class="cls-1" d="M98,98a277.91,277.91,0,0,1-49,4.2A277.91,277.91,0,0,1,0,98,49.18,49.18,0,0,1,26.35,58.37a36.62,36.62,0,0,0,45.33,0A49.18,49.18,0,0,1,98,98Z"/><path class="cls-1" d="M63.83,55.12a29.57,29.57,0,0,1-29.62,0,49.44,49.44,0,0,1,29.62,0Z"/><path class="cls-1" d="M98,98a277.91,277.91,0,0,1-49,4.2A277.91,277.91,0,0,1,0,98,49.18,49.18,0,0,1,26.35,58.37a36.62,36.62,0,0,0,45.33,0A49.18,49.18,0,0,1,98,98Z"/><path class="cls-1" d="M78.56,29.55A29.55,29.55,0,1,1,49,0,29.53,29.53,0,0,1,78.56,29.55Z"/></g></g></svg>