<svg xmlns="http://www.w3.org/2000/svg" viewBox="0 0 1064.08 112.99"><defs><style>.cls-1{fill:#383838;}.cls-2,.cls-3{fill:#fff;}.cls-3{font-size:53.63px;font-family:Montserrat-SemiBold, Montserrat;font-weight:700;letter-spacing:0.05em;}.cls-4{letter-spacing:0.04em;}.cls-5{letter-spacing:0.08em;}.cls-6{letter-spacing:0.05em;}.cls-7{letter-spacing:0.04em;}.cls-8{letter-spacing:0.04em;}</style></defs><title>Asset 28</title><g id="Layer_2" data-name="Layer 2"><g id="Layer_1-2" data-name="Layer 1"><path class="cls-1" d="M1064.08,56.5A56.52,56.52,0,0,1,1007.6,113H56.48a56.5,56.5,0,0,1,0-113H1007.6A56.49,56.49,0,0,1,1064.08,56.5Z"/><path class="cls-2" d="M172.19,34.19l-31.48,25-31.48-25a7.25,7.25,0,0,0-.41,2.4V71.25a7.42,7.42,0,0,0,7.55,7.26H165.1a7.39,7.39,0,0,0,7.52-7.26V36.61A6.52,6.52,0,0,0,172.19,34.19Zm-7.08-4.86H116.36a7.55,7.55,0,0,0-3.54.88L140.7,52.32l27.82-22.15A7.41,7.41,0,0,0,165.1,29.33Z"/><text class="cls-3" transform="translate(236.65 72.99)">grup<tspan class="cls-4" x="143.79" y="0">o</tspan><tspan x="180.69" y="0">a</tspan><tspan class="cls-5" x="215.92" y="0">l</tspan><tspan class="cls-6" x="235.5" y="0">tius@gmail</tspan><tspan class="cls-7" x="577.4" y="0">.</tspan><tspan class="cls-8" x="592.63" y="0">c</tspan><tspan x="626.04" y="0">om</tspan></text></g></g></svg>