<svg xmlns="http://www.w3.org/2000/svg" viewBox="0 0 112.35 110.99"><defs><style>.cls-1{fill:#c2fff8;}</style></defs><title>Asset 19</title><g id="Layer_2" data-name="Layer 2"><g id="Layer_1-2" data-name="Layer 1"><polygon class="cls-1" points="51.68 59.43 51.68 110.99 0 84.5 0 33.21 20.85 43.79 20.85 70.22 30.52 74.94 30.52 48.69 51.68 59.43"/><polygon class="cls-1" points="112.35 33.21 112.35 84.5 60.67 110.99 60.67 59.44 112.35 33.21"/><polygon class="cls-1" points="76.74 10.6 24.15 37.08 3.44 26.48 56.02 0 76.74 10.6"/><polygon class="cls-1" points="109.05 27.13 56.18 53.49 34.4 42.34 87 15.85 109.05 27.13"/><polygon class="cls-1" points="109.05 27.13 56.18 53.49 34.4 42.34 87 15.85 109.05 27.13"/><polygon class="cls-1" points="109.05 27.13 56.18 53.49 34.4 42.34 87 15.85 109.05 27.13"/></g></g></svg>