<svg xmlns="http://www.w3.org/2000/svg" viewBox="0 0 161.76 88.1"><defs><style>.cls-1{fill:#fff;}</style></defs><title>Asset 77</title><g id="Layer_2" data-name="Layer 2"><g id="Layer_1-2" data-name="Layer 1"><path class="cls-1" d="M123.61,69a21.38,21.38,0,0,1-3,8.38,22.13,22.13,0,0,1-5.9,6.33,23.52,23.52,0,0,1-7.89,3.67,23.18,23.18,0,0,1-17.49-2.55,23.74,23.74,0,0,1-6.54-5.77,22.09,22.09,0,0,1,4.59-31.41,23.19,23.19,0,0,1,16.91-4.06,22.77,22.77,0,0,1,18.83,16.5A20.92,20.92,0,0,1,123.61,69Zm-8.26-1.21a13.83,13.83,0,0,0-.32-5.69,14.41,14.41,0,0,0-2.4-5,14.88,14.88,0,0,0-4.13-3.77,14,14,0,0,0-5.38-2,13.81,13.81,0,0,0-5.79.32,14.8,14.8,0,0,0-8.76,6.5,14.39,14.39,0,0,0,.8,16A14.66,14.66,0,0,0,93.49,78a14.19,14.19,0,0,0,5.45,2,14,14,0,0,0,5.73-.34,15.3,15.3,0,0,0,5-2.42,15,15,0,0,0,3.74-4.11,13.83,13.83,0,0,0,1.91-5.31Z"/><path class="cls-1" d="M123.52,69.59s-.19,1.1-.51,2.27c0,.17-.1.34-.1.34s-.07.24-.15.51-.13.41-.24.72c0,.09-.15.41-.32.81,0,0-.31.72-.65,1.4a23.2,23.2,0,0,1-2.76,4.24,20.8,20.8,0,0,1-8.39,6.25,22.77,22.77,0,0,1-7.34,1.46,21.45,21.45,0,0,1-4.67-.38,17.17,17.17,0,0,1-6.81-2.82,16.72,16.72,0,0,1-5.46-6.65,19,19,0,0,1-1.8-6c0-.27-.06-.55-.08-.84,0-.45,0-.92,0-1.38a19.32,19.32,0,0,1,.2-2.74A19.81,19.81,0,0,1,86,61.36a19,19,0,0,1,4.37-5.54h0a2.42,2.42,0,0,1,.28-.24,2.46,2.46,0,0,0-.24.26,18.64,18.64,0,0,0-1.29,1.53A15.88,15.88,0,0,0,88,59.23c-.17.34-.35.7-.52,1.09s-.3.8-.34.91S87,62,86.8,62.65a17.12,17.12,0,0,0-.33,2.55,14.81,14.81,0,0,0,.12,2.21c0,.06,0,.12,0,.17A14.46,14.46,0,0,0,97.37,79.74l0,0c.57.15,1,.25,1.27.3a17,17,0,0,0,6.43,0,18,18,0,0,0,7.39-3.17,19,19,0,0,0,7.68-16.85,19.74,19.74,0,0,0-2.25-7.53,17.75,17.75,0,0,0-3.35-4.46,14.54,14.54,0,0,0-1.15-1c.3.19.55.36.76.51l.79.56.19.16.1.07.09.08.19.15a24.27,24.27,0,0,1,1.91,1.76l.17.19a22.6,22.6,0,0,1,4.5,6.94,21.73,21.73,0,0,1,1.38,4.86,20.74,20.74,0,0,1,.28,3.44A15.76,15.76,0,0,1,123.52,69.59Z"/><rect class="cls-1" x="81.8" y="17.96" width="14.45" height="6.2"/><path class="cls-1" d="M20.21,31.88a15.14,15.14,0,0,0,3.22-.3,16,16,0,0,0,2.65-.83V25H22.33a1.78,1.78,0,0,1-1.3-.44,1.54,1.54,0,0,1-.47-1.11V18.65H34v16a21.58,21.58,0,0,1-3,1.83,18.15,18.15,0,0,1-3.34,1.25,25.74,25.74,0,0,1-3.78.73,34.74,34.74,0,0,1-4.32.23,19.82,19.82,0,0,1-7.67-1.47A18.34,18.34,0,0,1,1.7,27,19.85,19.85,0,0,1,.23,19.31a20.84,20.84,0,0,1,1.4-7.77,17.31,17.31,0,0,1,4-6.11,17.87,17.87,0,0,1,6.29-4A22.81,22.81,0,0,1,20.2,0a22.92,22.92,0,0,1,4.44.4,21.81,21.81,0,0,1,3.82,1.05,18.79,18.79,0,0,1,3.2,1.61,17.41,17.41,0,0,1,2.59,2L31.71,9a2.62,2.62,0,0,1-.87.85,1.87,1.87,0,0,1-1.09.31,3.07,3.07,0,0,1-1.61-.51c-.7-.42-1.34-.78-2-1.08a11.54,11.54,0,0,0-1.87-.74,12.72,12.72,0,0,0-2-.42,21.27,21.27,0,0,0-2.39-.13,11,11,0,0,0-4.44.87,9.66,9.66,0,0,0-3.37,2.46A11,11,0,0,0,10,14.37a15.09,15.09,0,0,0-.76,4.94A15.71,15.71,0,0,0,10,24.66a11.52,11.52,0,0,0,2.29,3.95,9.81,9.81,0,0,0,3.48,2.46A11.78,11.78,0,0,0,20.21,31.88Z"/><path class="cls-1" d="M76.66,19.31a20.06,20.06,0,0,1-1.42,7.62A18,18,0,0,1,65.07,37.14a22.69,22.69,0,0,1-16.07,0A18.1,18.1,0,0,1,38.78,26.93a21.24,21.24,0,0,1,0-15.26A17.9,17.9,0,0,1,49,1.47,21.22,21.22,0,0,1,57,0a20.89,20.89,0,0,1,8,1.49A18.12,18.12,0,0,1,75.24,11.71,20,20,0,0,1,76.66,19.31Zm-9,0a17,17,0,0,0-.72-5,10.93,10.93,0,0,0-2.08-3.8,9.09,9.09,0,0,0-3.33-2.39,11.83,11.83,0,0,0-4.48-.83,11.65,11.65,0,0,0-4.52.83,9,9,0,0,0-3.35,2.39,10.93,10.93,0,0,0-2.08,3.8,18.11,18.11,0,0,0,0,10.11,11.07,11.07,0,0,0,2.08,3.81,8.71,8.71,0,0,0,3.35,2.36,12.9,12.9,0,0,0,9,0,8.85,8.85,0,0,0,3.33-2.36A11.07,11.07,0,0,0,67,24.37,17,17,0,0,0,67.7,19.31Z"/><path class="cls-1" d="M122.37.42v7H111.74V38.22H103V7.37H92.34V.42Z"/><path class="cls-1" d="M161.76,19.31a20.45,20.45,0,0,1-1.42,7.62,18,18,0,0,1-10.18,10.21,22.69,22.69,0,0,1-16.07,0,18.09,18.09,0,0,1-10.21-10.21,21.24,21.24,0,0,1,0-15.26,18.6,18.6,0,0,1,4-6.13,18.38,18.38,0,0,1,6.22-4.07,21.27,21.27,0,0,1,8-1.47,20.84,20.84,0,0,1,8,1.49,18.41,18.41,0,0,1,6.19,4.09,18.6,18.6,0,0,1,4,6.13A20.75,20.75,0,0,1,161.76,19.31Zm-9,0a16.67,16.67,0,0,0-.72-5,10.62,10.62,0,0,0-2.08-3.8,9.05,9.05,0,0,0-3.32-2.39,11.85,11.85,0,0,0-4.49-.83,11.65,11.65,0,0,0-4.52.83,9.12,9.12,0,0,0-3.34,2.39,10.66,10.66,0,0,0-2.1,3.8,17.93,17.93,0,0,0,0,10.11,10.49,10.49,0,0,0,2.1,3.81,8.75,8.75,0,0,0,3.34,2.36,11.52,11.52,0,0,0,4.52.81,11.64,11.64,0,0,0,4.49-.81A8.82,8.82,0,0,0,150,28.18a10.75,10.75,0,0,0,2.08-3.81A16.65,16.65,0,0,0,152.77,19.31Z"/><path class="cls-1" d="M27.44,52a3.93,3.93,0,0,1-1,1.08,2.18,2.18,0,0,1-1.26.36A3.08,3.08,0,0,1,23.75,53l-1.8-1a14.33,14.33,0,0,0-2.28-1,9.09,9.09,0,0,0-2.93-.43,6.31,6.31,0,0,0-4.24,1.21,4,4,0,0,0-1.38,3.27A3,3,0,0,0,12,57.33a7.3,7.3,0,0,0,2.19,1.5A26.34,26.34,0,0,0,17.25,60c1.17.34,2.36.74,3.57,1.17a29.66,29.66,0,0,1,3.57,1.52,11.56,11.56,0,0,1,3.12,2.21,10.35,10.35,0,0,1,2.2,3.27,11.64,11.64,0,0,1,.83,4.65,15.23,15.23,0,0,1-1,5.66,13.17,13.17,0,0,1-3,4.59,14,14,0,0,1-4.89,3.08A18.1,18.1,0,0,1,15,87.25a21.22,21.22,0,0,1-4.14-.42,23.28,23.28,0,0,1-4.09-1.17A23,23,0,0,1,3,83.85a16,16,0,0,1-3-2.33l3-4.73a2.56,2.56,0,0,1,.92-.87A2.89,2.89,0,0,1,5.2,75.6,3.52,3.52,0,0,1,7,76.17c.6.38,1.28.79,2.06,1.25a18.2,18.2,0,0,0,2.64,1.25,10.37,10.37,0,0,0,3.54.56A6.64,6.64,0,0,0,19.53,78a4.57,4.57,0,0,0,1.54-3.84,3.6,3.6,0,0,0-.84-2.47A6.53,6.53,0,0,0,18,70.12a19,19,0,0,0-3.1-1.1c-1.15-.32-2.35-.68-3.56-1.06a27.2,27.2,0,0,1-3.55-1.44,11.19,11.19,0,0,1-3.1-2.25,10.57,10.57,0,0,1-2.2-3.46,13.73,13.73,0,0,1-.83-5.12,12.07,12.07,0,0,1,1-4.78,12.41,12.41,0,0,1,2.89-4.16,14.29,14.29,0,0,1,4.69-2.92,17.25,17.25,0,0,1,6.37-1.09A22.57,22.57,0,0,1,24.13,44a21.29,21.29,0,0,1,3.18,1.46A15.54,15.54,0,0,1,30,47.37Z"/><path class="cls-1" d="M73.6,86.74H63.44V68.32H45.74V86.74H35.59V43.19H45.74V61.38h17.7V43.19H73.6Z"/><path class="cls-1" d="M138.68,72.18V86.74H128.59V43.19h15.35a25,25,0,0,1,7.91,1.1,15.13,15.13,0,0,1,5.44,3,11.66,11.66,0,0,1,3.16,4.52,15.48,15.48,0,0,1,1,5.62,16.87,16.87,0,0,1-1,6,12.33,12.33,0,0,1-3.19,4.68,15.29,15.29,0,0,1-5.45,3A25.71,25.71,0,0,1,144,72.2Zm0-7.62h5.26q3.94,0,5.67-1.89a7.53,7.53,0,0,0,1.74-5.26,7.4,7.4,0,0,0-.45-2.72,5.67,5.67,0,0,0-1.36-2.12,6.07,6.07,0,0,0-2.31-1.36,9.69,9.69,0,0,0-3.31-.47h-5.25Z"/></g></g></svg>