<svg xmlns="http://www.w3.org/2000/svg" viewBox="0 0 1061.05 88.54"><defs><style>.cls-1{fill:#fff;}</style></defs><title>Asset 11</title><g id="Layer_2" data-name="Layer 2"><g id="Layer_1-2" data-name="Layer 1"><path class="cls-1" d="M1060.83,77q-8.38-19-16.65-38a1.76,1.76,0,0,0-1.9-1.26c-3,.07-6-.07-9,.07-1.63.07-2-.42-2-2,.08-9.4,0-18.8.07-28.2,0-1.21-.23-1.71-1.59-1.7-6.28.07-12.57,0-18.86,0-.9,0-1.53.13-1.43,1.64-.9-1.21-1.55-1.67-2.61-1.66-4.76.07-9.52.06-14.28,0-1.09,0-1.6.27-1.45,1.43s-.07,1.51-1.35.89c-9.49-4.63-18.51-4.08-26.88,2.64-.64.52-1,.6-1.65,0a18.91,18.91,0,0,0-13.07-4.9c-6.53-.11-13.06,0-19.6,0a2.36,2.36,0,0,0-1.67.54c-2.22,1.87-4,3.89-3.33,7.13.13.64,0,1.35,0,2,.2,1.79,0,3.12-2.37,2.74a4.36,4.36,0,0,0-1.43.23l-23,4.44a4.46,4.46,0,0,1-2.5,0C890.18,21.49,886.1,20,882,18.73a2.66,2.66,0,0,1-2.06-2.34c-1.29-6-5-10-10.95-11.56s-11.09.27-15.15,4.92a18.86,18.86,0,0,1-2,1.92,14.83,14.83,0,0,0-.5,22.3,2.43,2.43,0,0,1,.76,2.85c-1.87,7.07-3.67,14.17-5.45,21.26-1,4.07.58,7.38,4.34,8.7,6.45,2.27,12.94,4.43,19.41,6.61,1.94.66,4.11.86,5.63-.44,2.73-2.32,5.77-4.45,7.32-7.88.86-1.89,1.61-3.83,2.43-5.73,1.21-2.82,2.43-5.63,3.79-8.77.27.83.43,1.28.56,1.74q2.52,9.08,5,18.16c1.29,4.66,4.39,6.58,9.08,5.67,6.23-1.22,12.47-2.4,18.7-3.62.82-.16,1.43-.25,2,.64,7.6,11.73,24.27,11.68,32.3,5.27.82-.66,1.31-.41,2,.07,8.13,5.31,16.55,5.58,25.19,1.31.36-.18.67-.57,1.16-.38.34,2.63.34,2.63,3.1,2.63,12.39,0,24.78,0,37.17,0,1.69,0,2.67-.39,3-2.07.25-1.49,1.15-1.82,2.59-1.86s1.31,1.13,1.51,1.82c.48,1.7,1.43,2.15,3.16,2.12,5.92-.11,11.84-.2,17.76,0a7.11,7.11,0,0,0,6.46-2.79A2,2,0,0,0,1060.83,77Zm-5.07-1.25c-4.94,0-9.89-.06-14.83,0a1.89,1.89,0,0,1-2.12-1.45c-1.41-3.74-1.88-3.93-6-3.46-.91.11-1,.7-1.29,1.29-1.49,3.6-1.49,3.6-5.36,3.6-10.75,0-21.48,0-32.23,0-1.33,0-1.9-.27-1.76-1.7.12-1.2,0-2.43,0-3.64-.84-.24-1.15.44-1.56.8a21.1,21.1,0,0,1-27.69.08c-.78-.65-1.2-.69-1.92,0-7.68,7.65-25.08,7.14-31.16-5.1-.27-.54-.44-1.1-1.33-.75-3.5,1.37-7.25,1.61-10.88,2.41-3.34.73-6.71,1.32-10.07,2s-5.24-.49-6.15-3.8q-4-14.37-7.93-28.74c-.07-.28-.17-.56-.42-1.3-.5,1.11-.82,1.75-1.1,2.41l-10.85,25.4c-1.46,3.42-3.34,4.29-6.82,3.12q-9-3.05-18-6.13c-3.14-1.08-4.09-2.82-3.26-6.07q2.89-11.44,5.86-22.86a2.12,2.12,0,0,0-.93-2.71,12.19,12.19,0,0,1-4.05-14.7,12.36,12.36,0,0,1,23.73,4.07c.06.94.21,1.53,1.24,1.89,5.1,1.82,10.4,3.13,15.33,5.44.49.23,1,0,1.43-.09L920.26,21c3.89-.75,5.69.53,6.14,4.39.25,2.18.44,4.37.77,6.55.13.86-.33,2.18,1.47,2.11s1.3-1.25,1.31-2.18c0-7.2.06-14.4,0-21.6,0-1.57.48-1.92,2-1.89,5.12.09,10.26,0,15.38,0,5.55,0,10.5,1.55,14,6.25.66.88,1,.46,1.5-.1,5.62-6.29,12.69-7.8,20.66-6.18a17.78,17.78,0,0,1,8,3.94l2.31,1.94c0-1.86,0-3.28,0-4.71,0-.88.29-1.17,1.16-1.16q5.59.05,11.17,0a2,2,0,0,1,1.67.92c1.32,1.59,2.65,3.18,4.14,5A16.18,16.18,0,0,0,1012,9.8c0-1,.16-1.43,1.29-1.42,4.7.06,9.4.07,14.1,0,1.43,0,1.38.73,1.37,1.72,0,9.4,0,18.8,0,28.2,0,1.67.48,2,2,2,3.3-.12,6.59,0,9.89-.06a1.64,1.64,0,0,1,1.78,1.15q7.14,16.44,14.38,32.85C1057.42,75.58,1057,75.74,1055.75,75.72Z"/><path class="cls-1" d="M1039.29,44.34a2.36,2.36,0,0,0-.27-.17l.27.18a3.82,3.82,0,0,1,.31.26A2.46,2.46,0,0,0,1039.29,44.34Zm-3.36-.64a9.6,9.6,0,0,1,1.65,0A9,9,0,0,0,1035.93,43.7ZM1025,39.06q0-12.9,0-25.8Q1025,26.16,1025,39.06Zm-7.75-27a2.76,2.76,0,0,0-.7,0,3.16,3.16,0,0,1,.7,0c2.19.08,4.39.05,6.59,0C1021.64,12.16,1019.44,12.19,1017.25,12.1Zm-.57,52.51c-1.35,0-2.69,0-4,0,1.35,0,2.69,0,4,0h0Zm-12-20.61a1,1,0,0,1,.33.17A.79.79,0,0,0,1004.71,44Zm-8.69.54a1,1,0,0,1,.21-.32A.89.89,0,0,0,996,44.54Zm-35.79-4.9.33.5h0Zm-1.78,7.64,0,0,0,0,.46.43h0Zm-4.48,15h-.12a1.21,1.21,0,0,1,.31,0Zm-4.4,2.51a5.33,5.33,0,0,0,.83-.29A7.19,7.19,0,0,1,949.56,64.79ZM935.3,12.1c1.61,0,3.22,0,4.83,0C938.51,12.14,936.91,12.13,935.3,12.1ZM922,24.54a.84.84,0,0,1,.32.12A.69.69,0,0,0,922,24.54Zm-24.1,4.55q8.74-1.64,17.47-3.35Q906.6,27.43,897.86,29.09Zm-27.75-17a9.26,9.26,0,0,1,.9.7A7.55,7.55,0,0,0,870.11,12.08Zm-2.09-1a9.68,9.68,0,0,1,1.09.44A7.67,7.67,0,0,0,868,11.06Z"/><path class="cls-1" d="M1051,70.18q-4.21-9.62-8.43-19.25c-.94-2.13-1.42-4.93-2.93-6.33a2.46,2.46,0,0,0-.31-.27,2.36,2.36,0,0,0-.27-.17,3,3,0,0,0-.6-.26,4.16,4.16,0,0,0-.83-.18,9,9,0,0,0-1.65,0l-.78.06-.64.07-1,.09a10.82,10.82,0,0,1-1.67,0,3.3,3.3,0,0,0-.69,0l-.25.05a1.68,1.68,0,0,0-1,.75,2.4,2.4,0,0,0-.18.31,3.66,3.66,0,0,0-.17.36c-3.44,8-7,16-10.47,23.94a3.34,3.34,0,0,1-1.06,1.74c0-1.88-.05-3.52,0-5.16a2.29,2.29,0,0,0-.06-.72.68.68,0,0,0-.09-.2.62.62,0,0,0-.11-.15h0l-.15-.1h0a.89.89,0,0,0-.2-.07l-.26,0h-.42c-1.35,0-2.69,0-4,0-1.82,0-3.65,0-5.47,0-1.46.05-1.83-.39-1.81-1.82.08-5.79,0-11.59.06-17.38,0-.11,0-.21,0-.3a1.11,1.11,0,0,0,0-.16,1.29,1.29,0,0,0,0-.29.43.43,0,0,0,0-.09.83.83,0,0,0-.29-.45.79.79,0,0,0-.33-.17,2.75,2.75,0,0,0-.83-.07c-2.13.08-4.27.1-6.4,0a2.09,2.09,0,0,0-1,.14l-.2.15a.89.89,0,0,0-.21.32,2.89,2.89,0,0,0-.13,1.05q.08,12.35,0,24.7a1.84,1.84,0,0,0,.35,1.38l.11.09.11.07.14.06h0a1.91,1.91,0,0,0,.31.07h0a5,5,0,0,0,.68,0q6.9,0,13.81,0,7.28,0,14.56.05a2.78,2.78,0,0,0,1.24-.25,1.37,1.37,0,0,0,.25-.16,1.4,1.4,0,0,0,.29-.3,1,1,0,0,0,.13-.25,1.18,1.18,0,0,0,.07-.27,5.87,5.87,0,0,1,.58-1.93,3.55,3.55,0,0,1,.21-.36,1,1,0,0,1,.11-.16,2.17,2.17,0,0,1,.25-.29,3,3,0,0,1,.72-.55,2.74,2.74,0,0,1,.31-.15,9.27,9.27,0,0,1,4.25-.25c.66.06,1.34,0,2,0,3.63,0,3.62,0,5,3.36a3.28,3.28,0,0,1,.14.48,2,2,0,0,0,.27.69.79.79,0,0,0,.68.33c3,0,6,0,9.21,0C1051.37,71.18,1051.17,70.68,1051,70.18Zm-18.83-10,2.63-6.87,2.65,6.87Z"/><path class="cls-1" d="M890.52,28.19c-4.52-1.47-9-3-13.52-4.56-.64-.22-1.39-.32-2-.54a3.57,3.57,0,0,1-.61-.27,1.75,1.75,0,0,1-.62-.57c-.41-.62.12-1.85.23-2.81a1.63,1.63,0,0,0,0-.18,8.55,8.55,0,0,0-2.93-6.5,7.55,7.55,0,0,0-.9-.7l-.33-.21c-.22-.13-.44-.25-.68-.37a7.67,7.67,0,0,0-1.09-.44,8.55,8.55,0,0,0-1.56-.37,8.67,8.67,0,0,0-9.55,6.46,8.48,8.48,0,0,0,5.23,10.08,3.1,3.1,0,0,1,1,.5,1.26,1.26,0,0,1,.16.17.64.64,0,0,1,.11.18.68.68,0,0,1,.07.19,2.64,2.64,0,0,1-.11,1.28c-2.24,8.54-4.38,17.11-6.63,25.64-.21.82-.2,1.32.17,1.69a2.51,2.51,0,0,0,1,.54q6.58,2.16,13.13,4.42l4.36,1.52c.82.28,1.34.29,1.76-.09a2.07,2.07,0,0,0,.31-.38,5.5,5.5,0,0,0,.28-.56q6.8-16.07,13.73-32.08C892,29,891.74,28.59,890.52,28.19Zm-29.32-3.5a6.58,6.58,0,0,1-2.55-7.11,6.41,6.41,0,0,1,4.89-4.9,6.57,6.57,0,0,1,6.93,2.13,5.26,5.26,0,0,1,1.3,4.21c0,2.86,0,2.86-2.45,2-3.59-1.22-3.59-1.22-4.5,2.41C864.12,26.28,863.55,26.46,861.2,24.69Zm27.2,6.51c-.5,1-.92,2-1.39,3a1.12,1.12,0,0,1-1.51.62l-19-2.67c-.83-.11-1-.54-.79-1.27.5-2.2,1-4.4,1.43-6.61.18-.87.61-1.05,1.44-.76q9.61,3.3,19.23,6.55C888.35,30.23,888.78,30.45,888.39,31.2Z"/><path class="cls-1" d="M926.77,61c-.17-1.49-.34-3-.52-4.46q-.51-4.45-1-8.87c-.17-1.47-.34-2.95-.51-4.41Q924,36.62,923.21,30c-.17-1.46-.33-2.93-.5-4.39,0-.11,0-.2,0-.29a2.11,2.11,0,0,0-.06-.24,1.05,1.05,0,0,0-.09-.19h0a.64.64,0,0,0-.11-.15.68.68,0,0,0-.13-.11.69.69,0,0,0-.32-.12,2.39,2.39,0,0,0-.81.06l-5.82,1.14q-8.73,1.7-17.47,3.35l-1.15.22c-1.19.22-1.31.74-1,1.77q1.18,4.23,2.34,8.46,2.34,8.46,4.66,16.92,1.16,4.23,2.3,8.47a2.4,2.4,0,0,0,.44.94l.17.15a1.2,1.2,0,0,0,.75.21,3.63,3.63,0,0,0,.75-.09q9.06-1.81,18.15-3.5l.5-.11.43-.15a1.1,1.1,0,0,0,.23-.12A1,1,0,0,0,926.77,61Zm-7-24.46c-3.12,0-6.22,0-9.34,0v.13c-2.87,0-5.74-.06-8.61,0-1.35,0-2.08-.28-2.48-1.72-.91-3.32-1-3.3,2.47-4,5.63-1.08,11.28-2.11,16.9-3.29,1.52-.32,1.94.07,2,1.53.06,1.95.24,3.9.48,5.83C921.31,36.25,920.83,36.53,919.75,36.51Z"/><path class="cls-1" d="M1025,13.26q0,12.89,0,25.8a1.12,1.12,0,0,1-.29.92.38.38,0,0,1-.14.09,1.22,1.22,0,0,1-.61.06h-.74l-1,0h-.62a10.51,10.51,0,0,1-3.5-.33,3.21,3.21,0,0,1-.54-.23,2.32,2.32,0,0,1-.31-.17,2.54,2.54,0,0,1-.3-.19,13.75,13.75,0,0,1-2.37-2.36l-.82-1-.3-.36-6.81-8.13v8.94a12.26,12.26,0,0,1-.15,2.66,1.69,1.69,0,0,1-.13.37h0a1.06,1.06,0,0,1-.21.27.93.93,0,0,1-.18.14c-.52.32-1.47.31-3.16.29s-4,.78-5.1-.35-.27-3.25-.27-4.94c0-7,0-13.91,0-20.86a2,2,0,0,1,.33-1.37l.11-.1a3.16,3.16,0,0,1,1.49-.44c4.35-.64,7.34.89,9.74,4.56,1.82,2.77,4.23,5.17,6.73,8.15,0-4.07.05-7.59,0-11.11a2.7,2.7,0,0,1,.08-.82.28.28,0,0,1,0-.1.85.85,0,0,1,.47-.52,1.2,1.2,0,0,1,.25-.07,2.76,2.76,0,0,1,.7,0c2.19.09,4.39.05,6.59,0h.36l.23,0,.19.07a.64.64,0,0,1,.15.12.66.66,0,0,1,.11.15h0a1.07,1.07,0,0,1,.07.19,2,2,0,0,1,0,.25C1025,13.05,1025,13.15,1025,13.26Z"/><path class="cls-1" d="M960.23,39.64l-.33-.49c-1.54-2.28-2.92-4.37-4.37-6.39-.49-.68-.64-1.09-.17-1.58a.57.57,0,0,1,.13-.13,2.45,2.45,0,0,1,.33-.27,11,11,0,0,0,1-.81c.16-.15.31-.29.45-.44A10,10,0,0,0,954,13.42c-.26-.11-.53-.23-.8-.32s-.54-.19-.8-.27a15.27,15.27,0,0,0-1.63-.4c-.55-.1-1.11-.17-1.67-.22s-1.13-.07-1.69-.07c-2.42,0-4.84,0-7.25,0-1.61,0-3.22,0-4.83,0a3.53,3.53,0,0,0-.55,0l-.31.06a1.13,1.13,0,0,0-.26.11.59.59,0,0,0-.2.16,1.86,1.86,0,0,0-.31,1.29c.06,7.38,0,14.77,0,22.15,0,1,0,1.71,0,2.28,0,.14,0,.26,0,.38a2.31,2.31,0,0,0,.09.41.73.73,0,0,0,0,.11,2.23,2.23,0,0,0,.11.25h0a1.21,1.21,0,0,0,.23.31l.12.1c.58.4,1.63.4,3.58.38a7.11,7.11,0,0,1,.83,0l.77.08.39,0c1.15.13,2.26.18,2.93-.52,1-1,.15-3.14.31-4.77.07-.63-.55-1.63.54-1.84a2.58,2.58,0,0,1,2.09.25l.21.18a2.59,2.59,0,0,1,.38.5c1,1.74,2.25,3.34,3.34,5a3,3,0,0,0,.51.61,1.75,1.75,0,0,0,1.25.42l1.83,0c1.67,0,3.38,0,5.2,0h2ZM947.88,25.82a7.24,7.24,0,0,1-1.27.12c-3.45.12-3.45.11-3.45-3.38,0-3.25,0-3.25,3.32-3.14,2.5.08,3.72,1,3.92,2.93A3,3,0,0,1,947.88,25.82Z"/><path class="cls-1" d="M993.53,22.44c-1.71-6.67-7.64-10.91-15.29-10.93a17.72,17.72,0,0,0-6.12,1,14.21,14.21,0,0,0-9.77,13.65,14.1,14.1,0,0,0,9.57,13.59,18,18,0,0,0,12.9-.16A14.24,14.24,0,0,0,993.53,22.44ZM978.12,33.11c-3.66,0-6.32-3.06-6.24-7.11s2.71-6.85,6.32-6.83,6.2,2.9,6.24,6.92S981.79,33.14,978.12,33.11Z"/><path class="cls-1" d="M980.3,43.67a19,19,0,0,0-7.64.08,14.34,14.34,0,0,0-11.57,16.67c1.06,7.2,7.4,12.17,15.55,12.25,1-.09,2.08-.13,3.1-.29,7.53-1.14,12.66-6.86,12.78-14.21S987.74,45.08,980.3,43.67Zm-3.58,21.28c-3.66,0-6.35-3-6.32-7s2.77-7,6.44-6.91S983,54,983,58,980.32,64.93,976.72,64.95Z"/><path class="cls-1" d="M959.12,66.19c.66.7.5,1.36-.33,2.17l-.22.2c-4.69,4.09-10.08,4.86-15.75,3.44l-.74-.19A14.08,14.08,0,0,1,935.53,68a13.57,13.57,0,0,1-2.9-4.83,17.51,17.51,0,0,1-.56-2,14.45,14.45,0,0,1,1.41-10.38c.23-.41.49-.8.76-1.19s.57-.75.88-1.11l.48-.52a16.22,16.22,0,0,1,11.81-4.66l.81,0a19.47,19.47,0,0,1,3.9.55,14.82,14.82,0,0,1,4.25,1.8,14.42,14.42,0,0,1,2.06,1.55l0,0h0c.15.13.31.27.46.42h0c.75.74.9,1.28.38,1.86l-.31.28-.19.14c-.16.11-.31.23-.47.36-.45.38-.87.8-1.32,1.2l-.34.32c-.33.33-.66.69-1,1l-.33.31-.18.15a3.65,3.65,0,0,1-.54.35h0a3,3,0,0,1-.38.15l-.15,0a1.07,1.07,0,0,1-.77-.21h0l-.29-.23A10.32,10.32,0,0,0,951.55,52a7.15,7.15,0,0,0-7.2-.13,7,7,0,0,0-.59.4,6,6,0,0,0-.54.47,5.14,5.14,0,0,0-.48.53c-2.12,2.67-1.91,7.45.44,9.82a6,6,0,0,0,.74.63,5.71,5.71,0,0,0,.54.36l.28.15a6.54,6.54,0,0,0,1.19.48l.63.15.32.05a5.66,5.66,0,0,0,.67.06,6.47,6.47,0,0,0,2-.22,7.19,7.19,0,0,0,.83-.29l.27-.13c.18-.09.36-.19.52-.29a6.12,6.12,0,0,0,1-.76,6.22,6.22,0,0,1,.8-.66,2.45,2.45,0,0,1,.47-.25,1.43,1.43,0,0,1,.42-.11h.31a2.35,2.35,0,0,1,1.47.76,2.28,2.28,0,0,1,.25.25l.27.27.54.56.28.27.28.27c.19.17.4.34.6.5s.41.31.62.46l.25.18A2.79,2.79,0,0,1,959.12,66.19Z"/><path class="cls-1" d="M1025.65,45.07q-3.32,7.43-6.52,14.89a1.4,1.4,0,0,1-1.54.94c-2.38,0-4.76,0-7.13,0-1,0-1.39-.23-1.38-1.31.05-4.82,0-9.63,0-14.44,0-.59-.13-1.2.78-1.37.62-.12.42-.8.42-1.25,0-1.38,0-2.77,0-4.15l.45-.16c1.25,1.48,2.54,2.93,3.72,4.46a2.71,2.71,0,0,0,2.47,1.19c2.61-.07,5.24,0,7.86,0C1025.83,43.82,1026.12,44,1025.65,45.07Z"/><path class="cls-1" d="M951.94,58c-.07,1.12-2.74,3.16-4.14,3.16-1.86,0-2.79-1.1-2.77-3.28s1-3.23,2.89-3.17C949.32,54.79,952,57,951.94,58Z"/><path class="cls-1" d="M933.49,44.71l-4.19,5.23c-.24-1.88-.45-3.43-.64-5-.05-.41-.2-1,.39-1a37.55,37.55,0,0,1,4.34,0C934,44,933.73,44.43,933.49,44.71Z"/><path class="cls-1" d="M992.19,46c-1.51-1.21-2.63-2.12-3.76-3-.55-.42-.49-.73.07-1.08.92-.58,1.82-1.19,2.72-1.8.6-.41,1-.47,1,.45C992.19,42.26,992.19,43.93,992.19,46Z"/><path class="cls-1" d="M870.47,14.82a6.57,6.57,0,0,0-6.93-2.13,6.41,6.41,0,0,0-4.89,4.9,6.58,6.58,0,0,0,2.55,7.11c2.36,1.77,2.93,1.59,3.63-1.22.9-3.63.9-3.63,4.5-2.41,2.46.82,2.46.82,2.45-2A5.26,5.26,0,0,0,870.47,14.82Zm-8.91-.11c.25-.1,2.12,2.63,2.08,3s-.32.44-.82.34c-.84-.54-2.55.07-2.94-1.24C859.67,16.13,860.61,15.11,861.56,14.71Zm-1.35,6.78c-.64,0-.94-.58-1-1.9.06-.42-.21-1.23.69-1,1.08.23,2.3.17,3.14,1C863.31,19.81,860.83,21.49,860.22,21.49Zm3.46,1.7c-.11.56,0,1.4-.66,1.55s-1.29-.52-1.84-1-.62-1,.12-1.4,1.65-1,2.62-1.55A3.83,3.83,0,0,1,863.68,23.19Zm2.38-9.14a8.71,8.71,0,0,1-1,3.2,3.55,3.55,0,0,1-1.33-1.75c-.29-.53-1.13-1.08-.56-1.71s1.43-.52,2.22-.53C865.91,13.26,866.22,13.52,866.07,14.05Zm.39,2.91c.33-1.09.32-2.32,1.12-3.29,1,.56,2.4,1,2.2,1.91-.26,1.15-1.8,1.45-2.83,2C866.5,17.82,866.32,17.37,866.45,17Zm4.13,3.25c-.94-.81-2.88-.19-3-1.41,0-.8,1.65-1.6,2.69-1.74s.51,1.32,1.08,1.84C871.18,19.48,870.94,20.52,870.59,20.21Z"/><path class="cls-1" d="M980.66,26.08c0,2-.86,3.22-2.4,3.28s-2.55-1.09-2.59-3.07.88-3.37,2.49-3.38S980.64,24.08,980.66,26.08Z"/><path class="cls-1" d="M979.18,58c0,2-.91,3.18-2.47,3.19S974.2,60,974.18,58s1-3.33,2.59-3.28S979.18,56,979.18,58Z"/><path class="cls-1" d="M37.69,14.7l3.07.81-9.38,9.93A89.32,89.32,0,0,1,37.69,14.7Z"/><path class="cls-1" d="M56.2,17.72c0-.34,0-.65,0-1a1.89,1.89,0,0,0-.28-.93,1.44,1.44,0,0,0-.3-.35,1.35,1.35,0,0,0-.38-.24l-.32-.14-.1,0-.2-.09h0l-.41-.17-.65-.25-.68-.26c-1.4-.53-3-1.08-4.64-1.62l-1.67-.53-.35-.1-.35-.11-2.77-.81-1.81-.49-.58-.15-.82-.2-.4-.1L38.68,10l-1.08-.24h0l-.22,0-.11,0-.34-.07-.17,0a1.57,1.57,0,0,0-1.06.35L35.6,10l-.08.08h0l-.08.08a1.7,1.7,0,0,0-.14.18l-.26.38-.14.2-.14.2q-.54.78-1.15,1.7l-.41.62-.28.43-.57.89A61.86,61.86,0,0,0,26.23,27a22.46,22.46,0,0,0-1.43,7.76c0,.26,0,.51,0,.76s0,.26,0,.38.07.5.11.74.1.49.16.72c.11.4.22.78.34,1.15a19.23,19.23,0,0,0,.77,2c.14.31.28.6.42.88A11.87,11.87,0,0,0,29.49,45a4.32,4.32,0,0,1,.37.35l.18.19a6,6,0,0,1,.77,1.06,8.54,8.54,0,0,1-1.39,10,6,6,0,0,1-.53.46,5.86,5.86,0,0,1-.58.39,7.81,7.81,0,0,1-1.71.74,9.39,9.39,0,0,1-.92.23,15.3,15.3,0,0,1-3.16.3h-.31a7.37,7.37,0,0,0-2.47.33,1.34,1.34,0,0,0-.92.8,1.14,1.14,0,0,0,.15.88,4.2,4.2,0,0,0,.9,1.06l.29.25c.15.13.32.25.5.38l.37.26a25.33,25.33,0,0,0,3.91,2.08,43.9,43.9,0,0,0,4.7,1.73l.33.1.33.11a44.25,44.25,0,0,0,4.86,1.2,28.69,28.69,0,0,0,3.3.42c.33,0,.65,0,1,0h.93l.34,0,.21,0a5.51,5.51,0,0,0,.59-.1l.18,0L42,68l.31-.14a1.14,1.14,0,0,0,.61-.65A1.39,1.39,0,0,0,42.6,66a7.71,7.71,0,0,0-1.89-1.66l-.26-.17-.68-.48a15.14,15.14,0,0,1-1.33-1.09c-.15-.13-.29-.27-.43-.41a7.53,7.53,0,0,1-2.15-3.63,8.48,8.48,0,0,1,4.28-9.08,5.79,5.79,0,0,1,2-.59l.41-.06.63-.12.65-.17.45-.14c.3-.1.62-.23.93-.36l.48-.22.49-.25.51-.28c.25-.15.51-.31.78-.48l.53-.36A22.5,22.5,0,0,0,49.9,44.9c3.53-3.13,5.15-9.31,5.85-15.37,0-.41.09-.81.13-1.22s.07-.8.1-1.2c0-.2,0-.4,0-.6,0-.39.05-.78.07-1.17,0,0,0,0,0,0,0-.38,0-.76.06-1.14v0c0-.38,0-.74,0-1.11C56.26,21.07,56.24,19.24,56.2,17.72ZM53,29.29,29.1,27.22A65.75,65.75,0,0,1,36.89,13l0-.07H37l.64.14.66.16c1.06.25,2.22.55,3.43.87l.78.22,1.58.45.79.24.34.1.05,0,.29.09c2.74.85,5.45,1.79,7.52,2.62h0l.26.1s0,.06,0,.08A79.67,79.67,0,0,1,53,29.29Z"/><path class="cls-1" d="M84,10.06a.76.76,0,0,0-.79-.67l-.17,0L58.27,14.47a.78.78,0,0,0-.62,1l7.89,23.9a.77.77,0,0,0,.75.51l.17,0L85.5,36a.79.79,0,0,0,.66-.82ZM72.85,33.61,68,32.8l.81-4.87,4.86.81Zm4.65-3.69-3-3.93,3.93-3,3,3.93ZM63,21.61,61.5,17l19.63-4,.64,7.64Z"/><path class="cls-1" d="M69.65,55.18c0,4.13,2.55,6.76,6.34,6.76a7.31,7.31,0,0,0,5.91-3.17l5.75,5.14c-2.66,3.48-6.84,5.41-12.13,5.41-8.69,0-15.06-5.83-15.06-14.14S66.83,41,75.52,41C80.81,41,85,43,87.65,46.45l-5.75,5.14A7.31,7.31,0,0,0,76,48.42C72.2,48.42,69.65,51.05,69.65,55.18Z"/><path class="cls-1" d="M103.87,41C95.06,41,88.61,47,88.61,55.18s6.45,14.14,15.26,14.14,15.26-5.95,15.26-14.14S112.68,41,103.87,41Zm0,20.9c-3.36,0-6.06-2.55-6.06-6.76s2.7-6.76,6.06-6.76,6.07,2.55,6.07,6.76S107.23,61.94,103.87,61.94Z"/><path class="cls-1" d="M105.26,10.2H91.93v27h13.33c9,0,15.26-5.14,15.26-13.52S114.3,10.2,105.26,10.2Zm-.39,19.93h-3.82V17.31h3.82c3.82,0,6.45,2.28,6.45,6.41S108.7,30.13,104.87,30.13Z"/><path class="cls-1" d="M135.46,41.66h-13v27h9.12V62.06h3.9c7.54,0,12.32-3.94,12.32-10.2S143,41.66,135.46,41.66ZM134.89,55h-3.32V48.69h3.32c2.51,0,3.71,1.2,3.71,3.17S137.4,55,134.89,55Z"/><polygon class="cls-1" points="146.32 37.24 123.84 37.24 123.84 10.2 145.82 10.2 145.82 17.07 132.8 17.07 132.8 20.24 144.23 20.24 144.23 26.81 132.8 26.81 132.8 30.36 146.32 30.36 146.32 37.24"/><path class="cls-1" d="M167.25,41.66h-9l-11.82,27h9.27L157.56,64h10.27l1.82,4.72h9.42Zm-7.18,15.76,2.63-6.8,2.62,6.8Z"/><path class="cls-1" d="M187.67,64.94l-11.82-27a9.38,9.38,0,0,0-8.6-5.63h-9a9.46,9.46,0,0,0-2.59.36V30.36a9.41,9.41,0,0,0-2.08-5.9V22.29a9.4,9.4,0,0,0,1.58-5.22V10.2A9.4,9.4,0,0,0,145.81.81h-22a9.39,9.39,0,0,0-6.49,2.61A27.92,27.92,0,0,0,105.26.81H91.93a9.35,9.35,0,0,0-3.39.63A10.28,10.28,0,0,0,83.26,0a10.45,10.45,0,0,0-1.89.17l-.16,0L56.39,5.27l-.55.13-.44-.17L55,5.1h0c-1.78-.64-3.74-1.29-5.67-1.89l-.14,0-.14,0-.06,0L48.73,3h0l-.05,0-.08,0h0c-1-.3-1.92-.57-2.88-.84l-.21-.06-1-.28-.22-.06-.13,0H44l-.13,0-.27-.07-.16,0h0l-.15,0-.24-.06L43,1.4l-.13,0-.11,0-.7-.17-.15,0h0l-.11,0-.11,0-.1,0-.1,0L41,.92,40.79.87h0L39.61.61l-.23,0-.13,0-.09,0h-.06L39,.48h-.06l-.06,0c-.23-.05-.44-.08-.63-.11h0c-.14,0-.45-.07-.85-.09h-.05l-.66,0A11,11,0,0,0,29.9,2.58l-.33.27L29.35,3l-.21.19,0,0-.26.25-.21.22-.13.14c-.15.16-.29.32-.43.49h-.17l-.66,0a11,11,0,0,0-6.75,2.35l-.33.27L20,7.12l-.21.19,0,0-.25.25-.21.22-.13.14a10.55,10.55,0,0,0-.92,1.14l-.06.09,0,.07,0,.05-.1.13-.11.16h0l-.08.12,0,0-.13.19,0,0-.05.07,0,0-1.13,1.66,0,0-.13.19-.15.23-.14.2,0,.07,0,.06,0,.06,0,0-.06.09-.14.22-.33.52-.14.23-.11.17,0,.07A69.84,69.84,0,0,0,8,28,31.06,31.06,0,0,0,6,39.09c0,.42,0,.8.07,1.21v0s0,.09,0,.13c0,.23,0,.45.07.67a0,0,0,0,1,0,0c.06.5.13.91.19,1.21a.62.62,0,0,0,0,.07v.1l0,.19,0,.06a.07.07,0,0,0,0,0c.07.35.15.69.25,1,.05.19.1.38.16.56v0l0,.08.11.38.05.17v0l.1.3,0,.08a27.86,27.86,0,0,0,1.13,2.94c.1.23.21.46.31.68v0l.32.62v0a22.7,22.7,0,0,0,2.34,3.67,15,15,0,0,0-4.2.85A10.66,10.66,0,0,0,.45,61.18a10.45,10.45,0,0,0,.8,7.94l0,.07,0,.09a13.39,13.39,0,0,0,2.9,3.58l0,0,.05,0,.48.41c.31.26.63.51,1,.76l.52.37.11.07a34.35,34.35,0,0,0,5.36,2.87,54,54,0,0,0,5.7,2.1h0l.09,0,.18.06.23.08.06,0,.08,0a53.19,53.19,0,0,0,5.9,1.44,38.44,38.44,0,0,0,4.35.55c.53,0,1.06.06,1.59.06h1.63l.34,0h.37l.24,0a12.42,12.42,0,0,0,1.49-.24c.11,0,.4-.09.72-.17h0l.92-.29.14-.05a11.4,11.4,0,0,0,1.37-.61l.16-.08a10.63,10.63,0,0,0,3.1-2.5H41l.34,0h.37l.24,0a13.8,13.8,0,0,0,1.49-.24c.11,0,.4-.09.72-.18h0c.32-.1.63-.19.92-.29l.14-.05a10.93,10.93,0,0,0,1.37-.61l.16-.08A10.62,10.62,0,0,0,48,75.36q.47.49,1,1a25,25,0,0,0,17.19,6.47,25.4,25.4,0,0,0,14.19-4,25.67,25.67,0,0,0,14.15,4,26.21,26.21,0,0,0,12.35-3,9.43,9.43,0,0,0,6.23,2.37h9.12a9.38,9.38,0,0,0,7.45-3.69,9.35,9.35,0,0,0,7.46,3.69h9.27a9.45,9.45,0,0,0,7-3.1,9.44,9.44,0,0,0,7,3.1h9.42a9.32,9.32,0,0,0,7.74-4.09h1.65a9.38,9.38,0,0,0,8.6-13.15Zm-3.13,7.34a6.53,6.53,0,0,1-5.47,3h-9.42A6.53,6.53,0,0,1,163.55,71l-.2-.53H162l-.2.53a6.52,6.52,0,0,1-6.09,4.18h-9.27a6.53,6.53,0,0,1-6.51-7c-.61.11-1.23.2-1.87.26v.24a6.53,6.53,0,0,1-6.53,6.53h-9.12A6.52,6.52,0,0,1,116.82,72a22.89,22.89,0,0,1-13,3.83,22.63,22.63,0,0,1-14.18-4.72,22.08,22.08,0,0,1-14.17,4.72,22.18,22.18,0,0,1-15.25-5.71,20.17,20.17,0,0,1-6.35-15,21.31,21.31,0,0,1,.8-5.85l-.51.47a29.88,29.88,0,0,1-2.5,2l-.72.49c-.34.23-.7.44-1.08.66l0,0-.65.36c-.46.25-.94.48-1.47.71s-1,.39-1.41.55l-.77.24c-.32.1-.66.18-1,.26h0c-.34.08-.66.14-1,.19l-.58.09a2,2,0,0,0-.78,1.74,3.72,3.72,0,0,0,.43.51l0,0,.08.08.09.09a8.79,8.79,0,0,0,.75.62h0l.47.33,0,0,.2.13a13.73,13.73,0,0,1,3.52,3.24A7.77,7.77,0,0,1,49.19,69a7.62,7.62,0,0,1-3.78,4.57l-.07,0a8.91,8.91,0,0,1-1.06.47l-.07,0-.79.25-.59.14a10.79,10.79,0,0,1-1.19.19l-.25,0-.24,0-.34,0H39.4c-.45,0-.91,0-1.39-.05a36.7,36.7,0,0,1-4-.51,50.85,50.85,0,0,1-5.58-1.37l-.09,0L28,72.8l-.26-.08-.06,0a51,51,0,0,1-5.4-2,31.26,31.26,0,0,1-4.94-2.65l0,0-.52-.36c-.31-.22-.58-.43-.82-.63l-.43-.37-.06-.05a10.47,10.47,0,0,1-2.29-2.81l0-.05a7.61,7.61,0,0,1-.63-5.85,7.82,7.82,0,0,1,4.91-5,13.39,13.39,0,0,1,4.67-.72h.45A8.58,8.58,0,0,0,24.34,52h.07l.31-.08.19-.07a2.11,2.11,0,0,0,.25-1.94,18.32,18.32,0,0,1-4.26-5.54c-.1-.2-.21-.4-.3-.6s-.19-.41-.29-.62a25.83,25.83,0,0,1-1-2.65h0v0c0-.1-.07-.21-.1-.31L19,39.66c0-.06,0-.12-.05-.18s-.09-.28-.12-.43-.15-.57-.21-.87l-.05-.26,0-.12c-.06-.33-.11-.68-.17-1.09,0-.2,0-.4-.06-.61,0,0,0-.05,0-.07,0-.39-.05-.74-.06-1.11a28.31,28.31,0,0,1,1.78-10.08,67.28,67.28,0,0,1,6.75-13.52v0l.12-.18.47-.74.2-.31.09-.13,0,0,.3-.45.14-.21c.39-.59.77-1.14,1.1-1.62l.11-.16,0,0,0,0,0,0,.07-.1.05-.08,0,0L29.7,7l.17-.26.07-.1a7.86,7.86,0,0,1,.71-.87l.08-.09.15-.16.2-.19.17-.15L31.4,5l.26-.21a8.15,8.15,0,0,1,5-1.74l.51,0c.3,0,.54.05.65.07l.46.08.07,0,.13,0,.21,0,.13,0,.14,0,1.15.25.67.16.16,0,.09,0,.17,0,.19,0,.78.19.08,0h0l.09,0,.44.11h.06l.46.12.37.1,1.1.3h0c1,.29,2,.57,2.9.85h0l.09,0,.28.09.08,0,.28.09c1.91.6,3.83,1.24,5.56,1.86l.88.32.84.32A7.53,7.53,0,0,1,57,8.07L81.78,3h0a7.41,7.41,0,0,1,6.45,1.8,6.5,6.5,0,0,1,3.67-1.13h13.33a24.08,24.08,0,0,1,12.83,3.42,6.53,6.53,0,0,1,5.74-3.42h22a6.53,6.53,0,0,1,6.53,6.53v6.87a6.51,6.51,0,0,1-1.58,4.27v4.24a6.49,6.49,0,0,1,2.09,4.78v6.87a6.29,6.29,0,0,1-.06.92,6.52,6.52,0,0,1,5.51-3h9a6.52,6.52,0,0,1,6,3.92l11.82,27A6.52,6.52,0,0,1,184.54,72.28Z"/><path class="cls-1" d="M37.69,14.7l3.07.81-9.38,9.93A89.32,89.32,0,0,1,37.69,14.7Z"/><path class="cls-1" d="M56.2,17.72c0-.34,0-.65,0-1a1.89,1.89,0,0,0-.28-.93,1.44,1.44,0,0,0-.3-.35,1.35,1.35,0,0,0-.38-.24l-.32-.14-.1,0-.2-.09h0l-.41-.17-.65-.25-.68-.26c-1.4-.53-3-1.08-4.64-1.62l-1.67-.53-.35-.1-.35-.11-2.77-.81-1.81-.49-.58-.15-.82-.2-.4-.1L38.68,10l-1.08-.24h0l-.22,0-.11,0-.34-.07-.17,0a1.57,1.57,0,0,0-1.06.35L35.6,10l-.08.08h0l-.08.08a1.7,1.7,0,0,0-.14.18l-.26.38-.14.2-.14.2q-.54.78-1.15,1.7l-.41.62-.28.43-.57.89A61.86,61.86,0,0,0,26.23,27a22.46,22.46,0,0,0-1.43,7.76c0,.26,0,.51,0,.76s0,.26,0,.38.07.5.11.74.1.49.16.72c.11.4.22.78.34,1.15a19.23,19.23,0,0,0,.77,2c.14.31.28.6.42.88A11.87,11.87,0,0,0,29.49,45a4.32,4.32,0,0,1,.37.35l.18.19a6,6,0,0,1,.77,1.06,8.54,8.54,0,0,1-1.39,10,6,6,0,0,1-.53.46,5.86,5.86,0,0,1-.58.39,7.81,7.81,0,0,1-1.71.74,9.39,9.39,0,0,1-.92.23,15.3,15.3,0,0,1-3.16.3h-.31a7.37,7.37,0,0,0-2.47.33,1.34,1.34,0,0,0-.92.8,1.14,1.14,0,0,0,.15.88,4.2,4.2,0,0,0,.9,1.06l.29.25c.15.13.32.25.5.38l.37.26a25.33,25.33,0,0,0,3.91,2.08,43.9,43.9,0,0,0,4.7,1.73l.33.1.33.11a44.25,44.25,0,0,0,4.86,1.2,28.69,28.69,0,0,0,3.3.42c.33,0,.65,0,1,0h.93l.34,0,.21,0a5.51,5.51,0,0,0,.59-.1l.18,0L42,68l.31-.14a1.14,1.14,0,0,0,.61-.65A1.39,1.39,0,0,0,42.6,66a7.71,7.71,0,0,0-1.89-1.66l-.26-.17-.68-.48a15.14,15.14,0,0,1-1.33-1.09c-.15-.13-.29-.27-.43-.41a7.53,7.53,0,0,1-2.15-3.63,8.48,8.48,0,0,1,4.28-9.08,5.79,5.79,0,0,1,2-.59l.41-.06.63-.12.65-.17.45-.14c.3-.1.62-.23.93-.36l.48-.22.49-.25.51-.28c.25-.15.51-.31.78-.48l.53-.36A22.5,22.5,0,0,0,49.9,44.9c3.53-3.13,5.15-9.31,5.85-15.37,0-.41.09-.81.13-1.22s.07-.8.1-1.2c0-.2,0-.4,0-.6,0-.39.05-.78.07-1.17,0,0,0,0,0,0,0-.38,0-.76.06-1.14v0c0-.38,0-.74,0-1.11C56.26,21.07,56.24,19.24,56.2,17.72ZM53,29.29,29.1,27.22A65.75,65.75,0,0,1,36.89,13l0-.07H37l.64.14.66.16c1.06.25,2.22.55,3.43.87l.78.22,1.58.45.79.24.34.1.05,0,.29.09c2.74.85,5.45,1.79,7.52,2.62h0l.26.1s0,.06,0,.08A79.67,79.67,0,0,1,53,29.29Z"/><path class="cls-1" d="M84,10.06a.76.76,0,0,0-.79-.67l-.17,0L58.27,14.47a.78.78,0,0,0-.62,1l7.89,23.9a.77.77,0,0,0,.75.51l.17,0L85.5,36a.79.79,0,0,0,.66-.82ZM72.85,33.61,68,32.8l.81-4.87,4.86.81Zm4.65-3.69-3-3.93,3.93-3,3,3.93ZM63,21.61,61.5,17l19.63-4,.64,7.64Z"/><path class="cls-1" d="M69.65,55.18c0,4.13,2.55,6.76,6.34,6.76a7.31,7.31,0,0,0,5.91-3.17l5.75,5.14c-2.66,3.48-6.84,5.41-12.13,5.41-8.69,0-15.06-5.83-15.06-14.14S66.83,41,75.52,41C80.81,41,85,43,87.65,46.45l-5.75,5.14A7.31,7.31,0,0,0,76,48.42C72.2,48.42,69.65,51.05,69.65,55.18Z"/><path class="cls-1" d="M103.87,41C95.06,41,88.61,47,88.61,55.18s6.45,14.14,15.26,14.14,15.26-5.95,15.26-14.14S112.68,41,103.87,41Zm0,20.9c-3.36,0-6.06-2.55-6.06-6.76s2.7-6.76,6.06-6.76,6.07,2.55,6.07,6.76S107.23,61.94,103.87,61.94Z"/><path class="cls-1" d="M105.26,10.2H91.93v27h13.33c9,0,15.26-5.14,15.26-13.52S114.3,10.2,105.26,10.2Zm-.39,19.93h-3.82V17.31h3.82c3.82,0,6.45,2.28,6.45,6.41S108.7,30.13,104.87,30.13Z"/><path class="cls-1" d="M135.46,41.66h-13v27h9.12V62.06h3.9c7.54,0,12.32-3.94,12.32-10.2S143,41.66,135.46,41.66ZM134.89,55h-3.32V48.69h3.32c2.51,0,3.71,1.2,3.71,3.17S137.4,55,134.89,55Z"/><polygon class="cls-1" points="146.32 37.24 123.84 37.24 123.84 10.2 145.82 10.2 145.82 17.07 132.8 17.07 132.8 20.24 144.23 20.24 144.23 26.81 132.8 26.81 132.8 30.36 146.32 30.36 146.32 37.24"/><path class="cls-1" d="M167.25,41.66h-9l-11.82,27h9.27L157.56,64h10.27l1.82,4.72h9.42Zm-7.18,15.76,2.63-6.8,2.62,6.8Z"/><path class="cls-1" d="M105.26,10.2H91.93v27h13.33c9,0,15.26-5.14,15.26-13.52S114.3,10.2,105.26,10.2Zm-.39,19.93h-3.82V17.31h3.82c3.82,0,6.45,2.28,6.45,6.41S108.7,30.13,104.87,30.13Z"/><path class="cls-1" d="M132.8,30.36V26.81h11.43V20.24H132.8V17.07h13V10.2h-22v27h22.48V30.36Z"/><path class="cls-1" d="M103.87,41C95.06,41,88.61,47,88.61,55.18s6.45,14.14,15.26,14.14,15.26-5.95,15.26-14.14S112.68,41,103.87,41Zm0,20.9c-3.36,0-6.06-2.55-6.06-6.76s2.7-6.76,6.06-6.76,6.07,2.55,6.07,6.76S107.23,61.94,103.87,61.94Z"/><path class="cls-1" d="M135.46,41.66h-13v27h9.12V62.06h3.9c7.54,0,12.32-3.94,12.32-10.2S143,41.66,135.46,41.66ZM134.89,55h-3.32V48.69h3.32c2.51,0,3.71,1.2,3.71,3.17S137.4,55,134.89,55Z"/><path class="cls-1" d="M167.25,41.66h-9l-11.82,27h9.27L157.56,64h10.27l1.82,4.72h9.42Zm-7.18,15.76,2.63-6.8,2.62,6.8Z"/><path class="cls-1" d="M81.89,58.78l5.75,5.14c-2.66,3.48-6.84,5.41-12.13,5.41-8.69,0-15.06-5.83-15.06-14.14S66.83,41,75.52,41C80.81,41,85,43,87.65,46.45l-5.75,5.14A7.31,7.31,0,0,0,76,48.42c-3.79,0-6.34,2.63-6.34,6.76S72.2,61.94,76,61.94A7.31,7.31,0,0,0,81.89,58.78Z"/><path class="cls-1" d="M37.69,14.7a89.32,89.32,0,0,0-6.3,10.74l9.38-9.93ZM37,13h0l.64.14Zm.66,1.71a89.32,89.32,0,0,0-6.3,10.74l9.38-9.93ZM37,13h0l.64.14Zm.66,1.71a89.32,89.32,0,0,0-6.3,10.74l9.38-9.93Zm0,0a89.32,89.32,0,0,0-6.3,10.74l9.38-9.93Zm0,0a89.32,89.32,0,0,0-6.3,10.74l9.38-9.93Zm0,0a89.32,89.32,0,0,0-6.3,10.74l9.38-9.93Zm0,0a89.32,89.32,0,0,0-6.3,10.74l9.38-9.93Zm0,0a89.32,89.32,0,0,0-6.3,10.74l9.38-9.93Zm0,0a89.32,89.32,0,0,0-6.3,10.74l9.38-9.93Zm0,0a89.32,89.32,0,0,0-6.3,10.74l9.38-9.93Zm0,0a89.32,89.32,0,0,0-6.3,10.74l9.38-9.93Zm0,0a89.32,89.32,0,0,0-6.3,10.74l9.38-9.93Zm0,0a89.32,89.32,0,0,0-6.3,10.74l9.38-9.93Zm0,0a89.32,89.32,0,0,0-6.3,10.74l9.38-9.93Zm0,0a89.32,89.32,0,0,0-6.3,10.74l9.38-9.93Zm18.51,3c0-.34,0-.65,0-1a1.89,1.89,0,0,0-.28-.93,1.44,1.44,0,0,0-.3-.35,1.35,1.35,0,0,0-.38-.24l-.32-.14-.1,0-.2-.09h0l-.41-.17-.65-.25-.68-.26c-1.4-.53-3-1.08-4.64-1.62l-1.67-.53-.35-.1-.35-.11-2.77-.81-1.81-.49-.58-.15-.82-.2-.4-.1L38.68,10l-1.08-.24h0l-.22,0-.11,0-.34-.07-.17,0a1.57,1.57,0,0,0-1.06.35L35.6,10l-.08.08-.08.08a1.7,1.7,0,0,0-.14.18l-.26.38-.14.2-.14.2q-.54.78-1.15,1.7l-.41.62-.28.43-.57.89A61.86,61.86,0,0,0,26.23,27a22.46,22.46,0,0,0-1.43,7.76c0,.26,0,.51,0,.76s0,.26,0,.38.07.5.11.74.1.49.16.72c.11.4.22.78.34,1.15a19.23,19.23,0,0,0,.77,2c.14.31.28.6.42.88A11.87,11.87,0,0,0,29.49,45a4.32,4.32,0,0,1,.37.35l.18.19a6,6,0,0,1,.77,1.06,8.54,8.54,0,0,1-1.39,10,6,6,0,0,1-.53.46,5.86,5.86,0,0,1-.58.39,7.81,7.81,0,0,1-1.71.74,9.39,9.39,0,0,1-.92.23,15.3,15.3,0,0,1-3.16.3h-.31a7.37,7.37,0,0,0-2.47.33,1.34,1.34,0,0,0-.92.8,1.14,1.14,0,0,0,.15.88,4.2,4.2,0,0,0,.9,1.06l.29.25c.15.13.32.25.5.38l.37.26a25.33,25.33,0,0,0,3.91,2.08,43.9,43.9,0,0,0,4.7,1.73l.33.1.33.11a44.25,44.25,0,0,0,4.86,1.2,28.69,28.69,0,0,0,3.3.42c.33,0,.65,0,1,0h.93l.34,0,.21,0a5.51,5.51,0,0,0,.59-.1l.18,0L42,68l.31-.14a1.14,1.14,0,0,0,.61-.65A1.39,1.39,0,0,0,42.6,66a7.71,7.71,0,0,0-1.89-1.66l-.26-.17-.68-.48a15.14,15.14,0,0,1-1.33-1.09c-.15-.13-.29-.27-.43-.41a7.53,7.53,0,0,1-2.15-3.63,8.48,8.48,0,0,1,4.28-9.08,5.79,5.79,0,0,1,2-.59l.41-.06.63-.12.65-.17.45-.14c.3-.1.62-.23.93-.36l.48-.22.49-.25.51-.28c.25-.15.51-.31.78-.48l.53-.36A22.5,22.5,0,0,0,49.9,44.9c3.53-3.13,5.15-9.31,5.85-15.37,0-.41.09-.81.13-1.22s.07-.8.1-1.2c0-.2,0-.4,0-.6,0-.39.05-.78.07-1.17,0,0,0,0,0,0,0-.38,0-.76.06-1.14v0c0-.38,0-.74,0-1.11C56.26,21.07,56.24,19.24,56.2,17.72ZM53,29.29,29.1,27.22A65.75,65.75,0,0,1,36.89,13l0-.07H37l.64.14.66.16c1.06.25,2.22.55,3.43.87l.78.22,1.58.45.79.24.34.1.05,0,.29.09c2.74.85,5.45,1.79,7.52,2.62h0l.26.1s0,.06,0,.08A79.67,79.67,0,0,1,53,29.29ZM31.39,25.44l9.38-9.93-3.07-.81A89.32,89.32,0,0,0,31.39,25.44Zm6.3-10.74a89.32,89.32,0,0,0-6.3,10.74l9.38-9.93Zm0,0a89.32,89.32,0,0,0-6.3,10.74l9.38-9.93Zm0,0a89.32,89.32,0,0,0-6.3,10.74l9.38-9.93Zm0,0a89.32,89.32,0,0,0-6.3,10.74l9.38-9.93Zm0,0a89.32,89.32,0,0,0-6.3,10.74l9.38-9.93Zm0,0a89.32,89.32,0,0,0-6.3,10.74l9.38-9.93Zm0,0a89.32,89.32,0,0,0-6.3,10.74l9.38-9.93Zm0,0a89.32,89.32,0,0,0-6.3,10.74l9.38-9.93Zm0,0a89.32,89.32,0,0,0-6.3,10.74l9.38-9.93Zm0,0a89.32,89.32,0,0,0-6.3,10.74l9.38-9.93Zm0,0a89.32,89.32,0,0,0-6.3,10.74l9.38-9.93Zm0,0a89.32,89.32,0,0,0-6.3,10.74l9.38-9.93Z"/><path class="cls-1" d="M56.2,17.72c0-.34,0-.65,0-1a1.89,1.89,0,0,0-.28-.93,1.44,1.44,0,0,0-.3-.35,1.35,1.35,0,0,0-.38-.24l-.32-.14-.1,0-.2-.09h0l-.41-.17-.65-.25-.68-.26c-1.4-.52-3-1.08-4.64-1.62l-1.67-.53-.35-.1-.35-.11-2.77-.81-1.81-.49-.58-.15-.82-.2-.4-.1L38.68,10l-1.08-.24h0l-.22,0-.11,0-.34-.07-.17,0a1.57,1.57,0,0,0-1.06.35L35.6,10l-.08.08h0l-.08.08a1.7,1.7,0,0,0-.14.18l-.26.38-.14.2-.14.2c-.36.52-.75,1.09-1.16,1.7l-.41.62-.28.43-.57.89A61.86,61.86,0,0,0,26.23,27a22.46,22.46,0,0,0-1.43,7.76c0,.26,0,.51,0,.76s0,.26,0,.38.07.5.11.74.1.48.17.72c.11.4.22.78.34,1.15a21.56,21.56,0,0,0,.77,2c.14.31.28.6.42.88A11.87,11.87,0,0,0,29.49,45a4.32,4.32,0,0,1,.37.35l.18.19a6,6,0,0,1,.77,1.06,8.54,8.54,0,0,1-1.39,10h0a5.1,5.1,0,0,1-.53.45,5.86,5.86,0,0,1-.58.39,7.81,7.81,0,0,1-1.71.74,9.39,9.39,0,0,1-.92.23,15.3,15.3,0,0,1-3.16.3h-.31a7.37,7.37,0,0,0-2.47.33,1.34,1.34,0,0,0-.92.8,1.14,1.14,0,0,0,.15.88,4.2,4.2,0,0,0,.9,1.06l.29.25c.15.13.32.25.5.38l.37.26a25.33,25.33,0,0,0,3.91,2.08,43.9,43.9,0,0,0,4.7,1.73l.33.1.33.11a44.25,44.25,0,0,0,4.86,1.2,28.69,28.69,0,0,0,3.3.42c.33,0,.65,0,1,0h.93l.34,0,.21,0a5.51,5.51,0,0,0,.59-.1l.18,0L42,68l.31-.14a1.14,1.14,0,0,0,.61-.65A1.39,1.39,0,0,0,42.6,66a7.71,7.71,0,0,0-1.89-1.66l-.26-.17-.68-.48a15.14,15.14,0,0,1-1.33-1.09c-.15-.13-.29-.27-.43-.41a7.53,7.53,0,0,1-2.15-3.63,8.48,8.48,0,0,1,4.28-9.08,5.79,5.79,0,0,1,2-.59l.41-.06.63-.12.65-.17.45-.14c.3-.1.62-.23.93-.36l.48-.22.49-.25.51-.28c.25-.15.51-.31.78-.48l.53-.36A22.5,22.5,0,0,0,49.9,44.9c3.53-3.13,5.15-9.31,5.85-15.37,0-.41.09-.81.13-1.22s.07-.8.1-1.2c0-.2,0-.4,0-.6,0-.39.05-.78.07-1.17,0,0,0,0,0,0,0-.38,0-.76.06-1.14v0c0-.38,0-.74,0-1.11C56.26,21.07,56.24,19.24,56.2,17.72ZM53,29.29,29.1,27.22A65.75,65.75,0,0,1,36.89,13l0-.07H37l.64.14.66.16c1.06.25,2.22.55,3.43.87l.78.22,1.58.45.79.24.34.1.05,0,.29.09c2.74.85,5.45,1.79,7.52,2.62h0l.26.1s0,.06,0,.08A79.67,79.67,0,0,1,53,29.29Z"/><path class="cls-1" d="M40.77,15.51l-9.38,9.93a89.32,89.32,0,0,1,6.3-10.74Z"/><path class="cls-1" d="M84,10.06a.76.76,0,0,0-.79-.67l-.17,0L58.27,14.47a.78.78,0,0,0-.62,1l7.89,23.9a.77.77,0,0,0,.75.51l.17,0L85.5,36a.79.79,0,0,0,.66-.82ZM72.85,33.61,68,32.8l.81-4.87,4.86.81Zm4.65-3.69-3-3.93,3.93-3,3,3.93ZM63,21.61,61.5,17l19.63-4,.64,7.64Z"/><path class="cls-1" d="M605.54,11l-4.1,3.91A12.72,12.72,0,0,0,592,10.49,10.33,10.33,0,0,0,581.53,21a11,11,0,0,0,1.34,5.48,9.68,9.68,0,0,0,3.79,3.76,11,11,0,0,0,5.45,1.36,11.18,11.18,0,0,0,4.67-1,16.73,16.73,0,0,0,4.66-3.48l4,4.15A21.65,21.65,0,0,1,599,35.91,17.68,17.68,0,0,1,592,37.21a16,16,0,0,1-11.77-4.56A15.79,15.79,0,0,1,575.66,21a16,16,0,0,1,2.08-8.2,15.58,15.58,0,0,1,6-5.76,16.85,16.85,0,0,1,8.37-2.18A17.76,17.76,0,0,1,605.54,11Z"/><path class="cls-1" d="M619.05,5.59h5.89V25.53a10.31,10.31,0,0,0,.45,3.65,3.67,3.67,0,0,0,1.49,1.71,4.68,4.68,0,0,0,2.5.64,4.9,4.9,0,0,0,2.67-.71A3.76,3.76,0,0,0,633.61,29a13.47,13.47,0,0,0,.43-4.2V5.59h5.89V24a26.42,26.42,0,0,1-.53,6.46,9.1,9.1,0,0,1-2,3.48A9.44,9.44,0,0,1,634,36.4a11.62,11.62,0,0,1-4.49.81,10.83,10.83,0,0,1-5.84-1.54,9,9,0,0,1-3.56-3.86q-1.07-2.32-1.07-7.83Z"/><path class="cls-1" d="M671.52,9.78l-4.34,3.84c-1.53-2.13-3.09-3.19-4.66-3.19a2.85,2.85,0,0,0-1.9.62,1.79,1.79,0,0,0-.73,1.39,2.38,2.38,0,0,0,.53,1.47,39.16,39.16,0,0,0,4.3,4q3.36,2.81,4.07,3.54a12.13,12.13,0,0,1,2.53,3.45,8.62,8.62,0,0,1,.75,3.6,8.25,8.25,0,0,1-2.62,6.27,9.57,9.57,0,0,1-6.84,2.48,10.21,10.21,0,0,1-5.74-1.62,12.79,12.79,0,0,1-4.19-5.07l4.93-3q2.23,4.09,5.13,4.09a3.75,3.75,0,0,0,2.54-.88,2.62,2.62,0,0,0,1-2,3.48,3.48,0,0,0-.78-2.09,22.5,22.5,0,0,0-3.42-3.21q-5-4.1-6.51-6.34a8,8,0,0,1-1.47-4.45,7.29,7.29,0,0,1,2.45-5.51,8.48,8.48,0,0,1,6-2.3A9.51,9.51,0,0,1,667,5.88,16,16,0,0,1,671.52,9.78Z"/><path class="cls-1" d="M685.84,5.59h5.83V36.43h-5.83Z"/><path class="cls-1" d="M735.21,11l-4.11,3.91a12.7,12.7,0,0,0-9.43-4.43A10.33,10.33,0,0,0,711.2,21a11.05,11.05,0,0,0,1.33,5.48,9.69,9.69,0,0,0,3.8,3.76,11,11,0,0,0,5.44,1.36,11.18,11.18,0,0,0,4.67-1,16.66,16.66,0,0,0,4.65-3.48l4,4.15a21.58,21.58,0,0,1-6.46,4.63,17.66,17.66,0,0,1-6.94,1.29,16,16,0,0,1-11.77-4.56A15.8,15.8,0,0,1,705.32,21a16,16,0,0,1,2.08-8.2,15.58,15.58,0,0,1,6-5.76,16.83,16.83,0,0,1,8.38-2.18A17.75,17.75,0,0,1,735.21,11Z"/><polygon class="cls-1" points="764.29 5.59 758.34 5.59 746.44 36.43 752.55 36.43 761.35 13.77 770.05 36.43 776.15 36.43 764.29 5.59"/><polygon class="cls-1" points="642.39 48.45 575.4 48.45 575.4 49.34 641.87 49.34 642.39 48.45"/><polygon class="cls-1" points="710.51 48.45 711.14 49.34 776.41 49.34 776.41 48.45 710.51 48.45"/><path class="cls-1" d="M674.1,40.33l.13-.17a.78.78,0,0,0-.36-.34.93.93,0,0,1-.38-.45.65.65,0,0,0-.52-.43c0-.25.17-.5,0-.74-.09,0-.2.08-.26,0s-.08-.17-.13-.26a1.19,1.19,0,0,1,.22-1.21l.15.13s.06,0,.06,0a1.09,1.09,0,0,1,.65-.48,13.83,13.83,0,0,1,2.1-.58c1-.16,2.09-.38,3.13-.59.4-.08.79-.19,1.19-.27s.55-.05.82-.13.77-.07,1.13-.2a8.4,8.4,0,0,1,1.51-.26c.57-.09,1.14-.15,1.71-.21A12.44,12.44,0,0,0,686.8,34c.51-.12,1,0,1.54-.19a6.41,6.41,0,0,1,1.33-.12l1.9-.11,3.7-.18c1.15,0,2.3-.1,3.45-.11s2.56,0,3.84.07h.32c.35-.74.72-1.47,1.05-2.21a13.35,13.35,0,0,1,1-1.84c.42-.63.81-1.27,1.2-1.91a.61.61,0,0,1,.49-.35c.14-.1,0-.35.22-.36s.24.25.32.38l1,.06c.06,0,.11,0,.17-.06s.14-.07.18,0c.24.13.53.08.78.23a1.38,1.38,0,0,0,.51.11l.42,0c.13,0,.25.09.4,0s.24.05.35.11.46.31.7.46a6.4,6.4,0,0,1,1.24,1.07,2.56,2.56,0,0,1,.58,2.18c0,.13-.16.24-.25.38s-.06.42-.12.64a.84.84,0,0,1-.22.34,4.22,4.22,0,0,0-.51.78,5.24,5.24,0,0,0-.24.57,1.58,1.58,0,0,0,.31.1l3,.28,1.9.2,4.17.39a.74.74,0,0,0,.27,0c.31-.09.45.07.61.3.3.43.64.84,1,1.25.13.16.16.44.45.46l0,0c0,.38.42.57.38,1,0,.06,0,.17,0,.18.26.09.25.4.48.51l-.24.31a1.19,1.19,0,0,1,.34,1.07,6.32,6.32,0,0,0,.14,1c0,.15,0,.3.06.46s0,.18,0,.22c-.21.2-.15.47-.18.74-.39.08-.27.52-.49.73a1,1,0,0,1-.66-.26,1.5,1.5,0,0,0-.93-.39c-.27,0-.53-.09-.79-.14,0,0-.12,0-.13-.06-.09-.27-.32-.2-.51-.22-.6-.07-1.2-.1-1.79-.22-.83-.17-1.67-.2-2.51-.31-.67-.09-1.34-.2-2-.28a13.72,13.72,0,0,0-2.1-.17,11.24,11.24,0,0,1-1.34-.1l-2.45-.23a6.53,6.53,0,0,1-.49.89c-.27.34-.31.79-.59,1.13a.14.14,0,0,0,0,.11c.12.36-.17.58-.32.82s-.32.74-.5,1.09-.11.63-.29.88-.23.74-.42,1.09a7.27,7.27,0,0,0-.43,1.1c-.25.71-.5,1.42-.72,2.14s-.33,1.19-.49,1.79a4,4,0,0,1-.35,1.08,5.89,5.89,0,0,0-.5,1.43c-.06.18-.08.37-.13.56s0,.18-.07.21c-.28.15-.36.44-.49.69,0,.06-.11.1-.19.16s.08.14.07.2a4.44,4.44,0,0,1-.26.88c-.19.39-.2.82-.4,1.2,0,.05,0,.16,0,.18-.31.22-.35.6-.53.9a2.39,2.39,0,0,0-.17.51c0,.15,0,.32-.28.34s-.2.2-.28.28,0,.35-.09.45a2.41,2.41,0,0,0-.28.8c-.06.18-.18.34-.24.52s-.14.51-.2.76l-.07.29-.18-.17-.58,2.35-.33.07c.17.28-.14.46-.12.71,0,.09-.07.19-.07.28a1.79,1.79,0,0,1-.26.86.89.89,0,0,0-.13.46,2,2,0,0,1-.11.45,1.73,1.73,0,0,1-.17.55.62.62,0,0,0-.08.35,1,1,0,0,1-.28.64,2.53,2.53,0,0,0-.2.43c-.12.23-.06.54-.32.71,0,0,0,.12,0,.18s0,.12,0,.15c-.21.29-.1.66-.26,1a2.18,2.18,0,0,0-.08.63,1.67,1.67,0,0,1-.1.3l0,0a1.59,1.59,0,0,1-.26.82,5.36,5.36,0,0,0-.27,1,1.53,1.53,0,0,0-.06.3.47.47,0,0,1-.17.39c-.11.1-.12.32-.19.52a.32.32,0,0,0-.24.33,4.68,4.68,0,0,1-.19.72,4.39,4.39,0,0,0-.11.79,4.19,4.19,0,0,1-.27,1.3,12,12,0,0,0-.32,1.38c0,.17-.06.35-.1.53-.3-.11-.4-.06-.42.24,0,.15,0,.3,0,.45h-.08l-.1-.34a1.53,1.53,0,0,0-.19,1c0,.27,0,.27-.25.43l-.12-.29h-.06c0,.33,0,.67-.08,1s-.16.65-.24,1h-.09l-.15-.33a1.35,1.35,0,0,1-.32.17,1,1,0,0,1-.31,0c-.09.49,0,1-.34,1.46l-.08-.68c-.21.57-.06,1.15-.25,1.75l-.19-.46-.12.69c-.32-.11-.37-.08-.42.18a1.09,1.09,0,0,0,0,.34,1.09,1.09,0,0,1-.29.77l-.06-1.07c-.19.22,0,.52-.22.74,0,0-.09-.09-.09-.13a2.22,2.22,0,0,1,0-.5.73.73,0,0,0,0-.32c0-.25,0-.33.2-.54,0,0-.11-.11-.1-.13.15-.27-.09-.52,0-.79a5,5,0,0,0,.12-.78c0-.34,0-.68,0-1a9,9,0,0,1,.08-1.1,10.13,10.13,0,0,0,.09-1.38,2,2,0,0,0,0-.25c0-.06,0-.15,0-.17s.12-.33.14-.5a21.42,21.42,0,0,1,.24-2.3,2.66,2.66,0,0,0,0-.5c0-.09,0-.18,0-.27.07-.68.14-1.36.23-2,.05-.4.13-.8.2-1.2.1-.58.21-1.15.3-1.73q.26-1.63.5-3.26c.11-.76.21-1.52.33-2.27,0-.2.08-.4.11-.6l.65-3.57c.05-.28.11-.55.16-.83a.34.34,0,0,0-.06-.24l-.67.9c-.47.65-.94,1.31-1.42,2-.3.39-.64.75-.95,1.13a.58.58,0,0,0-.11.34l.74-.39c-.13.26-.15.47-.42.53a.4.4,0,0,0-.22.2,6.69,6.69,0,0,1-1.1,1.25A2.83,2.83,0,0,1,689,68a3.75,3.75,0,0,1-.43.26l.23.07s0,.06,0,.07a2.27,2.27,0,0,1-1,.49c-.29.07-.61.11-.78.4h-.09c-.5-.06-.51-.08-.91.21a.67.67,0,0,1-.82.06,1.74,1.74,0,0,0-.79-.12.45.45,0,0,1-.33-.14l-.61-.52s0,0-.07,0c-.42,0-.62-.33-.91-.52a4.12,4.12,0,0,1-.79-.77,2.8,2.8,0,0,1-.42-.93,9,9,0,0,1-.45-2.63c-.31.14-.39.45-.59.64a2.25,2.25,0,0,0-.52.74c-.12.26-.25.51-.38.77l.29-.19a.29.29,0,0,1,0,.39,3.47,3.47,0,0,1-1,.83c-.12.07-.25.13-.26.3s-.07.09-.12.11c-.29.13-.58.25-.87.39a1.16,1.16,0,0,1-.91.16s-.1,0-.11,0a.41.41,0,0,1-.55.1c-.37-.18-.85-.11-1.11-.51,0-.07-.14-.16-.21-.16-.3,0-.4-.24-.57-.4a7.91,7.91,0,0,0-1.11-1,2.12,2.12,0,0,1-.94-1.47,10.8,10.8,0,0,1-.1-1.22c0-.47,0-.94,0-1.41a8.66,8.66,0,0,1,.35-2.15,15.5,15.5,0,0,1,.52-1.71c.26-.72.55-1.43.84-2.14a12.87,12.87,0,0,1,1.27-2.35c.54-.79,1-1.62,1.56-2.41.41-.6.86-1.18,1.31-1.74s1-1.17,1.47-1.75c.14-.16.31-.3.46-.46.43-.43.85-.87,1.3-1.29a1.59,1.59,0,0,1,.5-.2.64.64,0,0,1,.56-.49.34.34,0,0,1,.17,0c.25.13.25.13.51,0a.84.84,0,0,0,.83.23c.16,0,.33-.17.52,0s.33,0,.5.06a1.89,1.89,0,0,0,.26.07.88.88,0,0,1,.73.35H686l.59-.82c.11-.16.22-.32.34-.47a.64.64,0,0,1,.69-.32l-.19-.31.25-.18.39.45c.18-.1.39,0,.54-.15s.09,0,.11,0c.23.21.46-.07.69,0,.05,0,.15-.14.23-.23s.06,0,.06,0c.1.43.46.42.78.44s.69,0,1,0c.11,0,.21.11.31.18.31.24.71.36,1,.68a3.68,3.68,0,0,1,.62,1,2.47,2.47,0,0,1,.14,1.63.35.35,0,0,1-.06.14c-.35.33-.38.83-.66,1.2a6.44,6.44,0,0,0-.42.63c-.2.34-.38.69-.58,1-.11.18-.28.33-.39.52s-.37.61-.53.92c-.32.62-.62,1.26-.92,1.87l.17.23s0,.07,0,.07c-.18,0-.26.1-.3.27-.24.86-.5,1.72-.75,2.58a1,1,0,0,1-.06.13l-.18-.28c0,.09,0,.14-.06.19a9.75,9.75,0,0,1-.43,1.09,12.33,12.33,0,0,0-.66,2.42,8,8,0,0,0-.4,1.51v0a3.86,3.86,0,0,0-.4,1.82c-.08.55-.08,1.11-.12,1.67,0,.22,0,.47-.17.66a.77.77,0,0,0,.18-.09,19.07,19.07,0,0,0,1.41-1.29c.5-.55.94-1.16,1.4-1.75.3-.39.59-.81.89-1.2.12-.16.3-.27.43-.42a10.87,10.87,0,0,0,1.07-1.52c.27-.46.6-.88.91-1.31s.52-.72.77-1.08l1.4-2.08a1.4,1.4,0,0,0,.17-.34q.53-1.64,1.05-3.29c.15-.46.29-.93.43-1.39.09-.3.16-.61.25-.92l1.21-4.12c.15-.5.28-1,.45-1.5s.38-1,.56-1.47.41-1.1.61-1.65c.09-.24.19-.47.27-.71s.07-.24.1-.38a1.78,1.78,0,0,0-.26,0l-3.49.08c-.7,0-1.41,0-2.11,0-.45,0-.9,0-1.34,0l-3.29.27c-.55,0-1.11,0-1.67.06s-1,.08-1.52.13a32,32,0,0,0-3.52.48,5.3,5.3,0,0,1-1.87.13,3.58,3.58,0,0,0-.68.06c-.67,0-1.34.1-2,.08a2.27,2.27,0,0,1-1.41-.41.58.58,0,0,0-.57-.12c-.08,0-.19,0-.29,0a1.37,1.37,0,0,0-.29-.05.57.57,0,0,1-.46-.13.47.47,0,0,0-.21-.08Zm3.27,22.76.07,0,.23-.23c.53-.59,1-1.27,1.54-1.81a13.61,13.61,0,0,0,.85-1.06,2.22,2.22,0,0,0,.25-.29c.28-.45.55-.91.81-1.37a3.17,3.17,0,0,0,.33-.72c.24-.94.46-1.88.69-2.82,0-.1.06-.19.08-.29s0-.2,0-.29l-.07,0c-.36.49-.72,1-1.07,1.48a9.24,9.24,0,0,0-.79,1.26c-.22.46-.67.76-.81,1.26,0,.13-.21.21-.28.34-.19.35-.34.72-.52,1.07a19.7,19.7,0,0,0-.87,2.14,3.11,3.11,0,0,1-.44,1C677.36,62.87,677.39,63,677.37,63.09ZM691.56,86c-.21,0-.24-.11-.23-.25,0-.36,0-.73,0-1a5,5,0,0,0-.06,1.32Zm-.16-2.4,0,0c0-.08,0-.17,0-.25s0-.16,0-.24h-.07Zm0,.47h0v-.21h0Z"/><path class="cls-1" d="M653.59,45.94c0-.14.22-.15.4-.17l2-.29.33-.07-.08-.25a.35.35,0,0,1,.39-.12c.26,0,.54.18.8,0a.1.1,0,0,1,.09,0c.11.14.21.11.33,0a.19.19,0,0,1,.27,0c.05,0,.16,0,.25,0,.33,0,.65-.06,1-.07.16,0,.19-.09.18-.26l.37.31c.14-.05.23-.13.32-.12s.37.12.55.13a6.62,6.62,0,0,0,1.06,0c.48-.05,1-.14,1.44-.23a3.14,3.14,0,0,0,.49-.18s.08,0,.11,0a4.27,4.27,0,0,0,1.64-.13c.63-.06,1.26-.15,1.9-.23.3,0,.59-.09.89-.11.6,0,1.2-.05,1.8-.08.05,0,.11,0,.15,0a.56.56,0,0,1,.57.06.5.5,0,0,0,.5,0,1,1,0,0,1,.82,0s.09,0,.1,0a3.52,3.52,0,0,0,.89.78c.08.07.11.14,0,.21.39.22.56.64.86.94a1.71,1.71,0,0,1,.23.57l.37.31c0,.19-.13.34.07.54a.7.7,0,0,1,0,.72c-.07.16-.16.31-.06.49,0,0-.08.09-.14.16a1,1,0,0,1,.17.88l.21.2-.31.56.26.39-.74.28-.37-.27c-.12.07-.33,0-.39.2,0,0-.09,0-.14,0l-1,0c-.64,0-1.28,0-1.92.1s-1,.11-1.56.17-1.06.12-1.59.21-.9.18-1.35.27c-.12,0-.26,0-.3.17,0,0-.1.05-.16.06-.25,0-.51.07-.76.09a.28.28,0,0,0-.26.18c-.17.39-.51.71-.54,1.17,0,.09-.1.17-.14.27s-.12.35-.18.52-.06.2-.09.29l-.4,1a2.33,2.33,0,0,0,.3,0c.55,0,1.1-.07,1.65-.07a10.67,10.67,0,0,0,1.34-.08,1.13,1.13,0,0,1,1.17.46,1.63,1.63,0,0,0,.5.39c.08.11-.07.33.19.38a.14.14,0,0,1,.07.12c-.06.3.17.43.35.59s.1.05.12.09c.15.31.29.63.44.93a3.34,3.34,0,0,0,.25.4c.06.08.13.15.21.25-.22.22-.08.38,0,.61s.37.74,0,1.12c.3.21.26.47.18.75a.62.62,0,0,1,0,.11c-.19.34-.19.34-.14.6l-.45.08.07.39c-.28-.05-.58.23-.78-.14a1.64,1.64,0,0,1-1.17,0,.43.43,0,0,0-.43.06c-.07.05-.19,0-.29,0-1,.05-2,.1-3,.16-.25,0-.5.11-.75.14-.42.05-.84.07-1.26.12s-.7.11-1,.17l-.44.07c-.14.47-.29,1-.43,1.49a12.43,12.43,0,0,1-.38,1.42c-.13.32-.15.65-.29,1a8.15,8.15,0,0,0-.34,1.56l1,0c.47,0,.95,0,1.41.07s1.23,0,1.85.13,1.25.12,1.86.22,1.09.1,1.63.2c.2,0,.4.11.6.14l2,.26c.39,0,.79.1,1.18.12.19,0,.38,0,.57,0h2.21c.51,0,1,0,1.53,0,.2,0,.17.18.31.22s.22-.19.34,0c0,0,0,0,.09.05.13-.35.44-.21.66-.19l1.09.1c.37,0,.75.06,1.12.13a2.57,2.57,0,0,1,1.07.21,1.84,1.84,0,0,0,.71.15,4.25,4.25,0,0,0,1,.11,3.37,3.37,0,0,1,1.22.19c.09,0,.21,0,.32-.07l.06.6c.25.1.32-.08.4-.21a.43.43,0,0,1-.09.64l.42.26.34-.23c0-.16,0-.42.32-.37,0,0,.1-.07.12-.13s0-.2.16-.16.09.13.12.2.1.25.16.39l-.18.13s0,.07,0,.08.28.18.26.38c0,0,0,.09.08.11a.59.59,0,0,1,.34.65.8.8,0,0,0,.13.39.53.53,0,0,1,0,.57c-.07.11-.08.25-.19.43l-.09-.24-.08.06.64,1.16-.45,0c-.14.2.16.25.16.42-.16.2-.16.2,0,.47l-.26.05a.35.35,0,0,1-.15.43.4.4,0,0,0,0,.61.3.3,0,0,1,.11.45c0,.06,0,.15,0,.21l.3.09c-.23.22-.1.4,0,.58l-.44.19a.82.82,0,0,0,0,.1c0,.3-.19.4-.43.23s-.18-.23-.33-.29-.06-.19.07-.34c-.59-.43.06-.63.22-1-.16,0-.26-.07-.39.07s-.29.06-.47.08c.05.28.47.52.16.88l-.29-.49-.1.45a1.13,1.13,0,0,1-.71-.1.9.9,0,0,0-.33-.07l-.92-.08c-.14,0-.29,0-.37-.18s-.27-.11-.42-.12c-.34,0-.69,0-1-.1s-.44-.15-.66-.17c-.79-.07-1.58-.11-2.37-.17l-1.46-.14c-.16,0-.33,0-.49,0l-1.76-.09-1.21,0a2.28,2.28,0,0,0-.45-.06,6.28,6.28,0,0,1-.87-.06c-.31,0-.62,0-.92,0a2.29,2.29,0,0,1-1.23-.21.3.3,0,0,0-.35,0c-.07.05-.22.11-.27.07-.25-.2-.54-.08-.8-.09-.61,0-1.22,0-1.83,0-.38,0-.76,0-1.15,0a1.46,1.46,0,0,0-.21,0c-.09,0-.19.05-.26,0a2.34,2.34,0,0,0-1.08-.08c-.71,0-1.43.08-2.14.13a.22.22,0,0,0-.16.08.59.59,0,0,1-.88.27.5.5,0,0,1-.35.48l-1.51.25a.41.41,0,0,0-.18.06,2.2,2.2,0,0,1-1.17.28c-.51.07-1,.12-1.53.18a.34.34,0,0,1-.15,0c-.43-.17-.81.05-1.22.1l-1.21.15c-.5.07-1,.19-1.51.23a3.75,3.75,0,0,0-1.33.44,7.24,7.24,0,0,1-.81.34c-.55.19-1.11.36-1.67.55l-2.42.82c-.2.07-.38.2-.58.26a1,1,0,0,1-.58.06,4.25,4.25,0,0,1-.81-.49,3.63,3.63,0,0,1-.57-.44c-.39-.4-.75-.81-1.13-1.22a1,1,0,0,1-.12-.2,12.54,12.54,0,0,0-.73-1.33,2.52,2.52,0,0,1-.4-1.24s0-.07,0-.07c-.37-.14-.09-.48-.25-.7-.36-.15-.4-.45-.06-.8l-.28-.18c0-.25,0-.48,0-.71s0-.44,0-.68h.32c-.05-.19-.1-.36-.14-.52s0-.23-.07-.35l.37,0c-.15-.34.09-.55.29-.78a.38.38,0,0,1,.22-.13,9,9,0,0,0,1.83-.54c.93-.3,1.86-.61,2.8-.9a34.3,34.3,0,0,1,4.85-.92c.38-.06.76-.08,1.15-.13.06-.43.11-.85.18-1.26a2.21,2.21,0,0,1,.28-1.16,1,1,0,0,1-.09-.29,2.14,2.14,0,0,1,.07-.41c0-.19.13-.37-.1-.54-.07-.05,0-.3,0-.46a4,4,0,0,1,.08-.4c-.16,0-.26.06-.35.1a1,1,0,0,1-.71,0,.61.61,0,0,0-.3,0c-.21,0-.39.08-.54-.15,0-.05-.19-.05-.28,0a.54.54,0,0,1-.46-.13c-.15-.15-.28-.37-.46-.45a1,1,0,0,1-.5-.5c-.1-.2-.25-.38-.36-.57a.4.4,0,0,1,0-.18,1,1,0,0,0-.35-.79,1.33,1.33,0,0,0,0-.85.55.55,0,0,1,.24-.78l.27.16c0-.39-.28-.27-.44-.41.09-.32-.07-.73.34-1l-.4-.33L646,59v-.45a1.22,1.22,0,0,0,.24-.13c.22-.19.42-.32.71-.13.08.05.27,0,.4-.06.48-.15.94-.33,1.42-.46,1-.26,2-.5,3-.74a.44.44,0,0,0,.35-.35c.23-.76.49-1.52.73-2.28.17-.55.34-1.1.53-1.71l-1.07.31c-.28.09-.55.2-.83.28l-3,.84a1.25,1.25,0,0,1-.82-.08,5.08,5.08,0,0,1-1.08-.6c-.26-.19-.59-.33-.72-.68a1.47,1.47,0,0,0-.27-.34,4.45,4.45,0,0,1-.51-1.18l.21-.4-.39.08c.11-.21.22-.38.3-.55.2-.4.19-.4-.18-.69a1.48,1.48,0,0,1,.1-.23c.14-.22.13-.24-.1-.34l-.15-.09.55-.22-.32-.48a.81.81,0,0,1,.77-.34c.29,0,.49-.17.75-.23.56-.14,1.1-.33,1.65-.51s.89-.31,1.34-.44a14.07,14.07,0,0,1,2.57-.62c.23,0,.45-.12.67-.15S653.31,46,653.59,45.94ZM683,76.36l0-.37h-.33Zm-37-16.23.32,0c0-.16-.1-.22-.21-.17S646.12,60,646.07,60.12Zm36.46,13.75c0-.17,0-.3-.12-.38A.26.26,0,0,0,682.53,73.87Zm.56,2.58c.29.05.29.05.47-.13Zm.72-4.57-.33.12C683.69,72.11,683.77,72.07,683.81,71.89Zm-2.45-.77c-.15.1-.1.18,0,.3Zm.29.38s-.09-.07-.1-.07a.35.35,0,0,0-.09.1s.06.07.07.06A.58.58,0,0,0,681.64,71.5Z"/><path class="cls-1" d="M626.58,55.95a20.69,20.69,0,0,0,7,2,.72.72,0,0,0,.71-.71.73.73,0,0,0-.71-.71,18.72,18.72,0,0,1-6.3-1.82.73.73,0,0,0-1,.26.72.72,0,0,0,.26,1Z"/><path class="cls-1" d="M622.66,65l10,.44c.92,0,.92-1.39,0-1.43l-10-.44c-.92,0-.92,1.39,0,1.43Z"/><path class="cls-1" d="M626.49,76.79a19.88,19.88,0,0,1,5.57-3.7.72.72,0,0,0,.26-1,.73.73,0,0,0-1-.26,21,21,0,0,0-5.86,3.92c-.67.63.34,1.64,1,1Z"/><path class="cls-1" d="M717.67,54.19l-7.11,1.57c-.9.2-.52,1.58.38,1.38l7.11-1.57c.9-.2.52-1.58-.38-1.38Z"/><path class="cls-1" d="M720.24,63.62a23.39,23.39,0,0,1-9.36-.77.71.71,0,0,0-.38,1.38,24.44,24.44,0,0,0,9.74.82.74.74,0,0,0,.71-.71.72.72,0,0,0-.71-.71Z"/><path class="cls-1" d="M712,76.07a13.69,13.69,0,0,0-3.23-4.93.71.71,0,0,0-1,1,12.21,12.21,0,0,1,2.86,4.3.73.73,0,0,0,.88.5.72.72,0,0,0,.5-.88Z"/><path class="cls-1" d="M490.08,39.25V34c.1-.2.17-.39.24-.55l.11-.25c.1-.22.18-.43.25-.61s.13-.35.19-.47a5.82,5.82,0,0,0,.62-2.6v-7.7A5.82,5.82,0,0,0,485.67,16H466.22c-.07-.2-.14-.4-.23-.6v0l0-.09a6.46,6.46,0,0,0-3.08-3.13l-.94-.42h0l-.89-.35h0l-.13,0-1-.33c-.35-.11-.67-.19-.93-.26h0l-.1,0a6.34,6.34,0,0,0-1.44-.16,6.58,6.58,0,0,0-2.83.64l-.1.05-.1.05a6.48,6.48,0,0,0-2.9,3.1l0,0L448.63,21a10,10,0,0,0-4.5,3.9,10.53,10.53,0,0,0-1.64-2h0A10.31,10.31,0,0,0,439.63,21l-2.4-5.71-.33-.8A6.45,6.45,0,0,0,431,10.52a6.64,6.64,0,0,0-1.37.15h0l-.12,0h0l-.92.25-1,.34h0l-.09,0,0,0-.89.35c-.31.13-.61.26-1,.43a6.44,6.44,0,0,0-3.15,3.26v0l0,.05a20.35,20.35,0,0,0-.81,2A5.8,5.8,0,0,0,417.61,16h-8.86a5.86,5.86,0,0,1-3.11,0H382a5.81,5.81,0,0,1-3.52,0h-9a5.82,5.82,0,0,0-4.58,2.24A5.81,5.81,0,0,0,360.31,16h-9a5.78,5.78,0,0,0-4,1.57q-1-.44-2-.77a26.57,26.57,0,0,0-8.45-1.28,20.74,20.74,0,0,0-6.52,1,17.42,17.42,0,0,0-3.48,1.57A5.8,5.8,0,0,0,322.4,16H298.79a5.79,5.79,0,0,0-4.69,2.39,17.43,17.43,0,0,0-2.68-1.21A22.71,22.71,0,0,0,283.78,16H270a5.85,5.85,0,0,0-5.15,3.13l-.08.16a11.92,11.92,0,0,0-1.25,3.58s0,0,0,.06a5.25,5.25,0,0,0,0,.7V52.78a5.82,5.82,0,0,0,5.82,5.82h8.86a5.8,5.8,0,0,0,4.1-1.71,5.81,5.81,0,0,0,4.12,1.71h10.3a5.07,5.07,0,0,0,.7,0,5.46,5.46,0,0,0,.73,0h23.81A5.8,5.8,0,0,0,326,56.85q.89.39,1.81.71a28.19,28.19,0,0,0,9.23,1.52,22.77,22.77,0,0,0,6.47-.88,16.77,16.77,0,0,0,5.71-2.92c.36-.29.71-.6,1-.92a16.81,16.81,0,0,0,6.45,3.7,26,26,0,0,0,14.66,0,17.35,17.35,0,0,0,4.84-2.37,5.82,5.82,0,0,0,5,2.9H405.1a5.82,5.82,0,0,1,2.91,0h22.7a7.64,7.64,0,0,0,6.94,4.48,7.4,7.4,0,0,0,1.64-.18c.7-.15,1.44-.35,2.18-.57.55-.16,1.17-.36,1.81-.58l.1,0c.65.22,1.29.43,1.92.61s1.5.42,2.17.56a7.39,7.39,0,0,0,1.65.19A7.62,7.62,0,0,0,456.31,58l0-.07c.12-.33.27-.67.42-1l.13-.3,0,0a5.81,5.81,0,0,0,4.42,2h23.81a5.79,5.79,0,0,0,4.76-2.49l0,0a11.78,11.78,0,0,0,1.64-4,5.88,5.88,0,0,0,.12-1.14V43.26A5.83,5.83,0,0,0,490.08,39.25ZM489.14,51a3.25,3.25,0,0,1-.08.68,9.41,9.41,0,0,1-1.2,2.94v0a3.26,3.26,0,0,1-2.71,1.45H461.33a3.27,3.27,0,0,1-3.27-3.27v-7l-3.41,9.56c0,.09-.07.18-.11.27-.2.48-.41,1-.59,1.46l0,.08a5.08,5.08,0,0,1-4.78,3.38,4.94,4.94,0,0,1-1.1-.12c-.64-.14-1.31-.32-2-.52s-1.53-.48-2.31-.75l-.31-.11-.94.32c-.57.2-1.15.38-1.72.55s-1.38.39-2,.52a5.09,5.09,0,0,1-5.86-3.23l-.6-1.69a3.25,3.25,0,0,1-1.82.56H408a3.25,3.25,0,0,0-2.91,0H381.29A3.27,3.27,0,0,1,378,52.78V50.41a13.15,13.15,0,0,1-1.78,2,14.48,14.48,0,0,1-5.58,3.19,23.5,23.5,0,0,1-13.13,0,14.29,14.29,0,0,1-5.55-3.2,13.13,13.13,0,0,1-1.72-2,12,12,0,0,1-2.59,2.83,14.23,14.23,0,0,1-4.85,2.47,20.18,20.18,0,0,1-5.74.78,25.63,25.63,0,0,1-8.4-1.38,21.65,21.65,0,0,1-3.63-1.64,3.27,3.27,0,0,1-3.18,2.54H298.06a3.08,3.08,0,0,0-1.42,0h-10.3a3.28,3.28,0,0,1-2.73-1.46l-1.69-2.54a3.29,3.29,0,0,1-.55,1,3.27,3.27,0,0,1-3.26,3h-8.86A3.27,3.27,0,0,1,266,52.78V23.64a3.12,3.12,0,0,1,0-.49.27.27,0,0,1,0-.05,13.86,13.86,0,0,1,1-2.69h0A3.26,3.26,0,0,1,270,18.55h13.81a20.27,20.27,0,0,1,6.77,1,13.45,13.45,0,0,1,4.52,2.63c.23-.62.55-1.32.69-1.64a3.27,3.27,0,0,1,3-2H322.4a3.27,3.27,0,0,1,3.27,3.27v.37c.24-.24.49-.48.76-.7a14,14,0,0,1,4.7-2.57,18.23,18.23,0,0,1,5.72-.85,24.06,24.06,0,0,1,7.64,1.14,20.15,20.15,0,0,1,3.66,1.65,3.27,3.27,0,0,1,3.13-2.32h9a3.27,3.27,0,0,1,3.27,3.27V38a3.5,3.5,0,0,0,.34,1.88c.09.09.27.28,1,.28a3,3,0,0,0,.51,0l.08-.1V23.64a3.27,3.27,0,0,1,.14-.95,16.3,16.3,0,0,1,.79-2,3.27,3.27,0,0,1,3.07-2.16h9a3.26,3.26,0,0,0,3.52,0h23.61a3.26,3.26,0,0,0,3.11,0h8.86a3.27,3.27,0,0,1,3.27,3.27v18h5.81l-1.53-4.28a7.57,7.57,0,0,1,.53-6.27,6.9,6.9,0,0,1,.26-.82l-2.28-7.86-.06-.23a2,2,0,0,1,0-.2c0-.11,0-.23,0-.34a3.89,3.89,0,0,1,.11-.9,13.75,13.75,0,0,1,.93-2.44v0a3.91,3.91,0,0,1,1.91-2l.82-.36.85-.33.09,0,.93-.3.81-.22.12,0a3.79,3.79,0,0,1,.83-.09,3.91,3.91,0,0,1,3.59,2.37l.33.8L437.71,23a7.66,7.66,0,0,1,3,1.74,7.75,7.75,0,0,1,2,3l1.39,3.89.74-2.07a8,8,0,0,1,.41-.94l.31-.88a7.61,7.61,0,0,1,5-4.74l3.17-7.56a3.92,3.92,0,0,1,1.76-1.88l.11-.06a4.05,4.05,0,0,1,1.73-.39,3.75,3.75,0,0,1,.86.1l.07,0c.26.07.55.14.85.23l.91.29.06,0,.86.33.82.37a3.92,3.92,0,0,1,1.88,1.9l0,.06A3.88,3.88,0,0,1,464,18c0,.15,0,.3,0,.45v.13h21.71a3.27,3.27,0,0,1,3.27,3.27v7.7a3.2,3.2,0,0,1-.35,1.45c-.19.39-.32.8-.49,1.2a5.54,5.54,0,0,1-.56,1.15V39.9a3.54,3.54,0,0,1,0,.52,3.26,3.26,0,0,1,1.64,2.83Z"/><path class="cls-1" d="M290.45,40.87a10.29,10.29,0,0,0,3.83-3.15A9.41,9.41,0,0,0,296,32v-.08A9.24,9.24,0,0,0,293.31,25a10,10,0,0,0-3.86-2.38,17.05,17.05,0,0,0-5.67-.83H270V51h8.86V42.47h2.57L287.06,51h10.3ZM287,32.51a2.45,2.45,0,0,1-.89,2,4.19,4.19,0,0,1-2.74.78h-4.58V29.64h4.54a4.64,4.64,0,0,1,2.76.72,2.37,2.37,0,0,1,.9,2.07Z"/><polygon class="cls-1" points="322.6 43.26 322.6 50.97 298.79 50.97 298.79 21.82 322.4 21.82 322.4 29.52 307.53 29.52 307.53 32.68 321 32.68 321 39.91 307.53 39.91 307.53 43.26 322.6 43.26"/><path class="cls-1" d="M349.7,41.7v.08a9.24,9.24,0,0,1-.88,4.08,8.82,8.82,0,0,1-2.46,3,11,11,0,0,1-3.75,1.9,16.92,16.92,0,0,1-4.8.64,22.48,22.48,0,0,1-7.33-1.2,17.89,17.89,0,0,1-6.18-3.62l-.39-.35,5-6,.42.33a13.8,13.8,0,0,0,8.76,3.25,4.19,4.19,0,0,0,2.1-.42,1,1,0,0,0,.56-1v-.08a1,1,0,0,0-.13-.51,1.48,1.48,0,0,0-.55-.47,7.14,7.14,0,0,0-1.34-.57,23.51,23.51,0,0,0-2.29-.6c-1.51-.35-2.93-.74-4.22-1.15a13.45,13.45,0,0,1-3.49-1.67,7.36,7.36,0,0,1-3.3-6.51v-.08a9.23,9.23,0,0,1,.79-3.82,8.56,8.56,0,0,1,2.31-3,10.7,10.7,0,0,1,3.61-2,15,15,0,0,1,4.7-.69,20.84,20.84,0,0,1,6.6,1,16.86,16.86,0,0,1,5.28,2.9l.4.32-4.5,6.37-.45-.32a15.25,15.25,0,0,0-3.81-2,11.39,11.39,0,0,0-3.73-.67,3,3,0,0,0-1.78.41,1,1,0,0,0-.48.84v.08a1,1,0,0,0,.14.56,1.51,1.51,0,0,0,.56.47,7.67,7.67,0,0,0,1.38.56c.61.2,1.39.4,2.34.61a35.79,35.79,0,0,1,4.41,1.24,13.61,13.61,0,0,1,3.45,1.77,7.38,7.38,0,0,1,2.25,2.61A7.93,7.93,0,0,1,349.7,41.7Z"/><path class="cls-1" d="M378.5,21.82V37.92a17.12,17.12,0,0,1-1,6.07,10.72,10.72,0,0,1-7.12,6.72,18.67,18.67,0,0,1-5.59.79,18.44,18.44,0,0,1-5.57-.79,11.07,11.07,0,0,1-4.3-2.47A11,11,0,0,1,352.22,44a17.08,17.08,0,0,1-.93-5.9V21.82h9V38a5.87,5.87,0,0,0,1.24,4.13,4.35,4.35,0,0,0,3.34,1.29,4.46,4.46,0,0,0,3.35-1.24,5.5,5.5,0,0,0,1.24-4V21.82Z"/><polygon class="cls-1" points="405.83 43.26 405.83 50.97 382.02 50.97 382.02 21.82 405.63 21.82 405.63 29.52 390.76 29.52 390.76 32.68 404.23 32.68 404.23 39.91 390.76 39.91 390.76 43.26 405.83 43.26"/><polygon class="cls-1" points="431.19 43.06 431.19 50.97 408.75 50.97 408.75 21.82 417.61 21.82 417.61 43.06 431.19 43.06"/><polygon class="cls-1" points="485.87 43.26 485.87 50.97 462.06 50.97 462.06 21.82 485.67 21.82 485.67 29.52 470.8 29.52 470.8 32.68 484.26 32.68 484.26 39.91 470.8 39.91 470.8 43.26 485.87 43.26"/><path class="cls-1" d="M442.76,40.94l.6-1.67L439.62,28.8a4.35,4.35,0,0,0-2.89-2.72,3.13,3.13,0,0,1-2-1.78l-1.28-3-1.28-3-.29-.69-.29-.69v0l0,0a.62.62,0,0,0-.3-.32.66.66,0,0,0-.44-.05l-.7.19-.78.25-.77.3-.66.29a.62.62,0,0,0-.3.32.65.65,0,0,0,0,.44h0v.08l.21.72.21.72.94,3.17.94,3.17a3,3,0,0,1,.12.69,3.34,3.34,0,0,1,0,.69,3.54,3.54,0,0,1-.19.67,3,3,0,0,1-.33.61A4.34,4.34,0,0,0,429,32.6l3.86,10.82,3.86,10.82a1.82,1.82,0,0,0,.83,1,1.78,1.78,0,0,0,1.26.19c.52-.12,1.13-.27,1.8-.47.49-.15,1-.31,1.57-.5-.37-.16-.7-.33-1-.48a3.25,3.25,0,0,1-1.58-4ZM431.59,26.15a.36.36,0,1,1,.47.54.36.36,0,1,1-.47-.54Zm3.81,18.72a.06.06,0,0,1-.07,0c-.61-1.38-1.18-2.76-1.78-4.14l-1.73-4.17c-.57-1.4-1.22-2.73-1.68-4.19a3.39,3.39,0,0,1,.23-2.53c0-.09.1-.18.16-.27l.16-.23.33-.47c.23-.31.45-.61.69-.91a.05.05,0,0,1,.08,0,.05.05,0,0,1,0,.06c-.1.37-.23.73-.35,1.09l-.19.53-.1.26c0,.08-.06.16-.08.24a2.91,2.91,0,0,0,.1,1.88c.28.67.55,1.39.78,2.1s.45,1.43.69,2.15l1.42,4.27c.45,1.43.93,2.86,1.37,4.3A.06.06,0,0,1,435.39,44.87Z"/><path class="cls-1" d="M460.65,17.71a.65.65,0,0,0-.31-.32l-.66-.29-.77-.3-.78-.25-.7-.19h-.14a.69.69,0,0,0-.29.07.65.65,0,0,0-.3.32l0,0v0l-.29.69-.29.69-1.28,3-1.28,3a3.17,3.17,0,0,1-.8,1.12,3.09,3.09,0,0,1-1.21.67,4.34,4.34,0,0,0-2.89,2.72l-3.86,10.82-.64,1.81-3.22,9a1.83,1.83,0,0,0,0,1.28,1.78,1.78,0,0,0,.85.94c.48.24,1,.51,1.69.77l.65.27c.45.19.93.36,1.43.54.75.27,1.46.5,2.13.7s1.27.35,1.8.47a1.65,1.65,0,0,0,.38,0,1.81,1.81,0,0,0,1.7-1.2l3.86-10.82,3.86-10.82a4.35,4.35,0,0,0,.22-2,4.41,4.41,0,0,0-.73-1.91,3,3,0,0,1-.33-.61,3.06,3.06,0,0,1-.18-.67,3.1,3.1,0,0,1,0-.69,3,3,0,0,1,.12-.69l.94-3.17.94-3.17.21-.72.21-.72,0-.08h0a.65.65,0,0,0,0-.44Zm-6.94,9.34c-.32.21-.65.41-1,.6l-.5.28-.25.13-.21.13a2.91,2.91,0,0,0-1.16,1.49c-.23.69-.49,1.41-.79,2.1s-.59,1.38-.88,2.08L447.24,38c-.59,1.38-1.17,2.77-1.77,4.15a.06.06,0,0,1-.07,0,.06.06,0,0,1,0-.07c.44-1.44.91-2.86,1.36-4.3l1.41-4.28c.48-1.43.86-2.87,1.47-4.27a3.37,3.37,0,0,1,1.82-1.77l.3-.1.27-.08.55-.14c.37-.09.74-.17,1.12-.24a.06.06,0,0,1,.07,0A.05.05,0,0,1,453.71,27.06Zm1-.94a.36.36,0,1,1,.36-.36A.36.36,0,0,1,454.66,26.12Z"/></g></g></svg>