<svg xmlns="http://www.w3.org/2000/svg" viewBox="0 0 127.39 149.3"><defs><style>.cls-1{fill:#fff;}</style></defs><title>Asset 78</title><g id="Layer_2" data-name="Layer 2"><g id="Layer_1-2" data-name="Layer 1"><path class="cls-1" d="M63.67,5.92A57.68,57.68,0,1,0,121.35,63.6,57.68,57.68,0,0,0,63.67,5.92Zm36.6,94.28A51.75,51.75,0,1,1,34.4,20.91a52.45,52.45,0,0,1,9.13-5,51,51,0,0,1,15-3.81c1.69-.17,3.41-.25,5.13-.25a51.74,51.74,0,0,1,36.6,88.35Z"/><path class="cls-1" d="M.18,59.83C.11,61.08.07,62.34.07,63.6A63.68,63.68,0,0,0,37.7,121.67l1.22.53a63.66,63.66,0,0,0,82-30.88c.48-1,.92-2,1.35-3a63.66,63.66,0,0,0-32-82.52Q89.39,5.4,88.43,5A63.56,63.56,0,0,0,18.7,18.63,63.6,63.6,0,0,0,5.07,38.84a63,63,0,0,0-4.89,21M111.36,83.75A51.76,51.76,0,0,1,11.92,63.6,51.91,51.91,0,0,1,34.4,20.91a52.45,52.45,0,0,1,9.13-5,51,51,0,0,1,15-3.81c1.69-.17,3.41-.25,5.13-.25a51.78,51.78,0,0,1,47.69,71.9Z"/><path class="cls-1" d="M120.07,49.36c0,.23.06.46.08.7.14,1.08.24,2.23.32,3.43h0a22,22,0,0,1,.12,3.71,58.62,58.62,0,0,1-39.41,55.09,54.1,54.1,0,0,1-16.73,3.08c-24.16.26-39.7-17.63-40.4-18.46A53,53,0,0,1,12,64.74a51.39,51.39,0,0,1,2.6-17.56A52.65,52.65,0,0,1,29.79,24.46c-.11-.1-14.52,11.45-19.72,28.36A67.39,67.39,0,0,0,7.42,70.31a59.38,59.38,0,0,0,.63,8.59c.21,1.44.47,2.87.79,4.27.19.85.4,1.69.62,2.53a58.3,58.3,0,0,0,8.28,17.84,51.57,51.57,0,0,0,20,18.13,53,53,0,0,0,22.5,5.44A64,64,0,0,0,96.76,118a65.34,65.34,0,0,0,25.77-30.34,64.38,64.38,0,0,0,4.76-25.36,62.14,62.14,0,0,0-6.67-27.15A66.76,66.76,0,0,0,116.33,28a62.95,62.95,0,0,0-15.14-15.72,56.19,56.19,0,0,0-7.32-4.66A49.2,49.2,0,0,0,89,5.26s.7.39,1.2.66a54.54,54.54,0,0,1,6.13,3.84s12.74,9.14,19.16,23.5A66.4,66.4,0,0,1,118,39.74a58.91,58.91,0,0,1,1.47,5.78c.14.69.27,1.4.39,2.1S120,48.77,120.07,49.36Z"/><path class="cls-1" d="M45.57,105.1a4.76,4.76,0,1,1,4.75-4.76A4.75,4.75,0,0,1,45.57,105.1Z"/><path class="cls-1" d="M30.35,46.48l.23.2.31.3a3.21,3.21,0,0,1,.51.73c.84,1.67,11.61,35,11.67,35.15a.81.81,0,0,1,0,.36.75.75,0,0,1-.13.36,10.92,10.92,0,0,0-1.55,4.32,5.13,5.13,0,0,0,2.14,5,10.47,10.47,0,0,0,7.09,1.71c4.94-.28,9.87-.72,14.81-1,5.18-.32,10.36-.61,16-.77,2.76-.07,5.44,0,5.44,0l2.44,0a2.81,2.81,0,0,0,1.3-.31,2.32,2.32,0,0,0,1.2-1.74,2.17,2.17,0,0,0-.19-1.12,2.62,2.62,0,0,0-2.5-1.44c-2.84-.1-5.68-.08-8.53,0s-5.74.2-8.61.36c-4,.22-7.94.48-11.9.75-2.92.19-5.83.43-8.74.64-.77.06-2.81.3-3.88-.29a1.82,1.82,0,0,1-.8-.78,1.61,1.61,0,0,1-.12-.64,2.19,2.19,0,0,1,.22-1,.67.67,0,0,1,.23-.28.83.83,0,0,1,.38-.13l11.12-1.19L72.53,84.1l17.4-1.87a3.27,3.27,0,0,0,3.12-2.53c1.23-5.67,5.09-23.59,5.28-24.44v0a5.42,5.42,0,0,0,0-2.53A3.38,3.38,0,0,0,97,51.24a4.13,4.13,0,0,0-2-.55c-1.67,0-21.93,0-49.68.05A8.7,8.7,0,0,1,41.79,50a7.43,7.43,0,0,1-2.22-1.39A20.1,20.1,0,0,1,38.08,47c-.32-.38-.53-.65-.53-.65L37,45.6l-.41-.5c-.39-.46-.4-.49-.61-.74-.4-.48-.6-.71-.84-1s-.41-.43-.69-.68a5.49,5.49,0,0,0-1-.81l-.47-.29c-.27-.15-.73-.41-1.76-.88-.33-.16-.61-.29-.94-.43-.58-.26-1-.44-1.22-.52-3-1.23-3.4-1.3-3.84-1.3a3.18,3.18,0,0,0-1.86.47,2.41,2.41,0,0,0-1,1.38,1.17,1.17,0,0,0,0,.15,2.77,2.77,0,0,0,.52,2,3.71,3.71,0,0,0,1.91,1.15,34.53,34.53,0,0,1,3.57,1.59A11.11,11.11,0,0,1,30.35,46.48ZM92.27,56.76c-1.35,6.28-2.7,13.87-4,20.14a.94.94,0,0,1-.86.71L49.93,81.35a1.41,1.41,0,0,1-1.51-.94c-2-6.14-3.94-12.83-5.93-19.17-.37-1.19-.74-2.36-1.12-3.52A1.36,1.36,0,0,1,42.72,56l12.74,0c12-.08,24-.21,35.84-.22A.92.92,0,0,1,92.27,56.76Z"/><path class="cls-1" d="M87.12,103.74A4.76,4.76,0,1,1,91.87,99,4.74,4.74,0,0,1,87.12,103.74Z"/><path class="cls-1" d="M38.52,36.48c.1.33.62.82,1.62,1.84a25.47,25.47,0,0,0,2.41,2.2,5.55,5.55,0,0,0,2.2,1.27h0a3.62,3.62,0,0,0,2.61-.33,5.05,5.05,0,0,0,2.21-2.15,6,6,0,0,0,.32-4.71,6.24,6.24,0,0,0-6.49-3.83,6,6,0,0,0-3.61,1.95C39.54,33,38,34.81,38.52,36.48Z"/><path class="cls-1" d="M32.11,35.37a2.26,2.26,0,0,0-.41,1.15,3,3,0,0,0,.49,1.85,5.74,5.74,0,0,0,1.46,1.78c1.68,1.65,2,1.93,2.2,2.19.58.6,1,1.11,1.44,1.56l1,1.16A11.86,11.86,0,0,0,42,48.28a9.45,9.45,0,0,0,3.18.9c.23,0,.83.06,1.53.08.54,0,.94,0,1,0,.41,0,25.85.11,28.47,0a4.14,4.14,0,0,0,1.7-.41,4.2,4.2,0,0,0,.78-.5,5.31,5.31,0,0,0,.72-.75c.5-.6.75-.9.93-1.15,1.59-2.17,4.62-6.77,4.62-6.77a.56.56,0,0,1,1,0c2.64,4.34,4.77,7.5,5.66,8.64a2.93,2.93,0,0,0,1.91,1.28,2.4,2.4,0,0,0,.76-.07,2.61,2.61,0,0,0,1.95-2.25,3.71,3.71,0,0,0-.41-1.64,4.2,4.2,0,0,0-.35-.61c-.47-.7-3.21-5.28-7.46-12.48a3.16,3.16,0,0,0-.59-.74,3.35,3.35,0,0,0-.42-.32l1.53.14c.9.07,1.79.12,2.66.16a1.91,1.91,0,0,0,1-.28,2.49,2.49,0,0,0,.71-2.95,2.29,2.29,0,0,0-.21-.39,2,2,0,0,0-.68-.58,3.79,3.79,0,0,0-1.28-.45L78.18,25.51s-3-.39-4,1.27c-.88,1.43-3.63,9.5-4.4,11.79a.85.85,0,0,1-.84.58c-.88,0-1.94-.07-3.15-.08-2.45,0-4.29,0-5.8.09-2.06.08-3.09.13-4.35.25a13.63,13.63,0,0,0-4.42.83,22.57,22.57,0,0,0-2.35,1.3,7,7,0,0,1-1.94,1.08,4.51,4.51,0,0,1-2.25.06,4.76,4.76,0,0,1-1.38-.62,11.67,11.67,0,0,1-2-1.59c-.64-.57-1-.88-1.53-1.42-.7-.7-2.27-2.38-3.78-3.77a2.8,2.8,0,0,0-1-.64,2.58,2.58,0,0,0-1.77,0A2.19,2.19,0,0,0,32.11,35.37Zm46.55-4a.89.89,0,0,1,.3-.47,1,1,0,0,1,.69-.16c.56,0,2,.2,4.46.47h.1a3.75,3.75,0,0,0-.48.25,2.07,2.07,0,0,0-.39.28,3.16,3.16,0,0,0-.52.53l-.11.14c-.32.41-2.52,3-5.57,6.7,0,0-.17.14-.26.1s-.1,0-.13-.23C76.69,38.55,78.05,33.53,78.66,31.32Z"/><rect class="cls-1" x="33.18" y="140.89" width="5.88" height="2.52"/><path class="cls-1" d="M8.13,146.56a6.38,6.38,0,0,0,1.31-.13,6.08,6.08,0,0,0,1.07-.34v-2.33H9a.71.71,0,0,1-.52-.18.58.58,0,0,1-.19-.45v-2h5.46v6.49a7.78,7.78,0,0,1-1.23.75,7.34,7.34,0,0,1-1.36.51,11.36,11.36,0,0,1-1.54.3,16.17,16.17,0,0,1-1.76.09,8,8,0,0,1-3.12-.6A7.4,7.4,0,0,1,.6,144.57a8.08,8.08,0,0,1-.6-3.13,8.5,8.5,0,0,1,.57-3.16,7.13,7.13,0,0,1,1.63-2.49,7.38,7.38,0,0,1,2.57-1.63,9.4,9.4,0,0,1,3.36-.58,10.21,10.21,0,0,1,1.8.16,8.65,8.65,0,0,1,1.56.44,7.17,7.17,0,0,1,1.3.65,6.92,6.92,0,0,1,1.06.82l-1,1.58a1.13,1.13,0,0,1-.35.34.81.81,0,0,1-.45.13,1.22,1.22,0,0,1-.65-.21c-.28-.17-.55-.31-.8-.44a5.12,5.12,0,0,0-.77-.3,5.17,5.17,0,0,0-.82-.17,9.35,9.35,0,0,0-1-.05,4.48,4.48,0,0,0-1.8.35,3.92,3.92,0,0,0-1.37,1A4.34,4.34,0,0,0,4,139.43a6.06,6.06,0,0,0-.31,2A6.34,6.34,0,0,0,4,143.61a4.8,4.8,0,0,0,.93,1.61,4,4,0,0,0,1.42,1A4.54,4.54,0,0,0,8.13,146.56Z"/><path class="cls-1" d="M31.09,141.44a8.33,8.33,0,0,1-.57,3.1A7.39,7.39,0,0,1,28.9,147a7.58,7.58,0,0,1-2.52,1.66,9.21,9.21,0,0,1-6.54,0A7.58,7.58,0,0,1,17.32,147a7.27,7.27,0,0,1-1.63-2.5,8.6,8.6,0,0,1,0-6.21,7.32,7.32,0,0,1,1.63-2.49,7.55,7.55,0,0,1,2.52-1.65,8.46,8.46,0,0,1,3.27-.61,8.58,8.58,0,0,1,3.27.61,7.73,7.73,0,0,1,2.52,1.66,7.44,7.44,0,0,1,1.62,2.49A8.33,8.33,0,0,1,31.09,141.44Zm-3.65,0a6.93,6.93,0,0,0-.29-2.06,4.41,4.41,0,0,0-.85-1.54,3.61,3.61,0,0,0-1.36-1,4.56,4.56,0,0,0-1.83-.34,4.68,4.68,0,0,0-1.84.34,3.61,3.61,0,0,0-1.36,1,4.41,4.41,0,0,0-.85,1.54,7.46,7.46,0,0,0,0,4.12,4.46,4.46,0,0,0,.85,1.55,3.58,3.58,0,0,0,1.36,1,4.87,4.87,0,0,0,1.84.34,4.74,4.74,0,0,0,1.83-.34,3.58,3.58,0,0,0,1.36-1,4.46,4.46,0,0,0,.85-1.55A6.93,6.93,0,0,0,27.44,141.44Z"/><path class="cls-1" d="M49.69,133.75v2.83H45.36v12.55H41.79V136.58H37.47v-2.83Z"/><path class="cls-1" d="M65.71,141.44a8.14,8.14,0,0,1-.58,3.1A7.33,7.33,0,0,1,61,148.7a9.21,9.21,0,0,1-6.54,0A7.52,7.52,0,0,1,51.93,147a7.39,7.39,0,0,1-1.62-2.5,8.6,8.6,0,0,1,0-6.21,7.25,7.25,0,0,1,4.15-4.14,8.39,8.39,0,0,1,3.27-.61,8.58,8.58,0,0,1,3.27.61,7.58,7.58,0,0,1,2.51,1.66,7.44,7.44,0,0,1,1.62,2.49A8.14,8.14,0,0,1,65.71,141.44Zm-3.65,0a6.61,6.61,0,0,0-.3-2.06,4.26,4.26,0,0,0-.85-1.54,3.65,3.65,0,0,0-1.35-1,5.12,5.12,0,0,0-3.67,0,3.61,3.61,0,0,0-1.36,1,4.26,4.26,0,0,0-.85,1.54,7.22,7.22,0,0,0,0,4.12,4.3,4.3,0,0,0,.85,1.55,3.58,3.58,0,0,0,1.36,1,5.12,5.12,0,0,0,3.67,0,3.62,3.62,0,0,0,1.35-1,4.3,4.3,0,0,0,.85-1.55A6.61,6.61,0,0,0,62.06,141.44Z"/><path class="cls-1" d="M80.06,136.88a1.26,1.26,0,0,1-.33.38.75.75,0,0,1-.45.12,1.12,1.12,0,0,1-.52-.15l-.63-.34a5.06,5.06,0,0,0-.81-.34,3,3,0,0,0-1-.16,2.22,2.22,0,0,0-1.5.43A1.44,1.44,0,0,0,74.3,138a1.08,1.08,0,0,0,.3.77,2.36,2.36,0,0,0,.77.52,7.71,7.71,0,0,0,1.1.41c.41.12.83.26,1.26.41a11.58,11.58,0,0,1,1.26.53,4.34,4.34,0,0,1,1.1.79,3.65,3.65,0,0,1,.78,1.15,4.26,4.26,0,0,1,.29,1.64,5.31,5.31,0,0,1-.37,2,4.54,4.54,0,0,1-1.07,1.62A4.89,4.89,0,0,1,78,148.9a6.38,6.38,0,0,1-2.34.4,7.39,7.39,0,0,1-1.46-.15,8.52,8.52,0,0,1-1.44-.41,9.35,9.35,0,0,1-1.31-.64,5.64,5.64,0,0,1-1.07-.83l1.06-1.66a.94.94,0,0,1,.78-.43,1.23,1.23,0,0,1,.64.2c.21.14.46.29.73.45a5.75,5.75,0,0,0,.93.44,3.38,3.38,0,0,0,1.25.2,2.34,2.34,0,0,0,1.51-.43,1.6,1.6,0,0,0,.54-1.35,1.29,1.29,0,0,0-.3-.88,2.44,2.44,0,0,0-.78-.56,6.57,6.57,0,0,0-1.09-.39c-.41-.11-.83-.24-1.25-.37a9.77,9.77,0,0,1-1.26-.51,3.85,3.85,0,0,1-1.09-.79,3.81,3.81,0,0,1-.78-1.23,4.77,4.77,0,0,1-.29-1.81,4.28,4.28,0,0,1,.34-1.68,4.5,4.5,0,0,1,1-1.47A5,5,0,0,1,74,134a6,6,0,0,1,2.24-.39,7.87,7.87,0,0,1,1.38.12,7.15,7.15,0,0,1,1.27.32,7.79,7.79,0,0,1,1.13.52,5.43,5.43,0,0,1,.93.68Z"/><path class="cls-1" d="M96.36,149.13H92.77v-6.5H86.52v6.5H82.93V133.75h3.59v6.43h6.25v-6.43h3.59Z"/><path class="cls-1" d="M114.07,141.44a8.33,8.33,0,0,1-.57,3.1,7.7,7.7,0,0,1-1.62,2.5,7.58,7.58,0,0,1-2.52,1.66,9.21,9.21,0,0,1-6.54,0,7.52,7.52,0,0,1-2.53-1.66,7.39,7.39,0,0,1-1.62-2.5,8.6,8.6,0,0,1,0-6.21,7.25,7.25,0,0,1,4.15-4.14,8.46,8.46,0,0,1,3.27-.61,8.58,8.58,0,0,1,3.27.61,7.33,7.33,0,0,1,4.14,4.15A8.33,8.33,0,0,1,114.07,141.44Zm-3.65,0a6.61,6.61,0,0,0-.3-2.06,4.26,4.26,0,0,0-.85-1.54,3.57,3.57,0,0,0-1.35-1,5.12,5.12,0,0,0-3.67,0,3.61,3.61,0,0,0-1.36,1,4.41,4.41,0,0,0-.85,1.54,7.22,7.22,0,0,0,0,4.12,4.46,4.46,0,0,0,.85,1.55,3.58,3.58,0,0,0,1.36,1,5.12,5.12,0,0,0,3.67,0,3.55,3.55,0,0,0,1.35-1,4.3,4.3,0,0,0,.85-1.55A6.61,6.61,0,0,0,110.42,141.44Z"/><path class="cls-1" d="M119.35,144v5.14h-3.57V133.75h5.43a8.86,8.86,0,0,1,2.79.39,5.36,5.36,0,0,1,1.92,1.06,4.17,4.17,0,0,1,1.11,1.59,5.45,5.45,0,0,1,.36,2,5.78,5.78,0,0,1-.37,2.11,4.17,4.17,0,0,1-1.13,1.65,5.46,5.46,0,0,1-1.92,1.07,9.07,9.07,0,0,1-2.76.38Zm0-2.69h1.86a2.62,2.62,0,0,0,2-.66,2.66,2.66,0,0,0,.61-1.86,2.93,2.93,0,0,0-.15-1,2.1,2.1,0,0,0-.48-.75,2.43,2.43,0,0,0-.82-.48,3.59,3.59,0,0,0-1.16-.17h-1.86Z"/></g></g></svg>