<?xml version="1.0" standalone="no"?>
<!DOCTYPE svg PUBLIC "-//W3C//DTD SVG 20010904//EN"
 "http://www.w3.org/TR/2001/REC-SVG-20010904/DTD/svg10.dtd">
<svg version="1.0" xmlns="http://www.w3.org/2000/svg"
 width="134.000000pt" height="132.000000pt" viewBox="0 0 134.000000 132.000000"
 preserveAspectRatio="xMidYMid meet">

<g transform="translate(0.000000,132.000000) scale(0.100000,-0.100000)"
fill="#79798a" stroke="none">
<path d="M392 1270 c-64 -14 -96 -37 -223 -167 -79 -81 -120 -131 -130 -158
-11 -31 -14 -106 -14 -330 0 -273 1 -293 21 -335 24 -53 72 -102 123 -127 28
-14 66 -19 174 -21 l137 -4 0 40 0 40 -127 3 c-113 4 -132 7 -166 28 -73 45
-77 63 -77 381 l0 280 145 0 145 0 0 -70 0 -70 110 0 110 0 0 70 0 70 155 0
155 0 0 -60 0 -60 40 0 40 0 0 73 0 72 94 94 c81 80 94 90 102 74 4 -10 10
-136 12 -280 l3 -263 40 0 40 0 -3 273 c-3 257 -4 274 -25 312 -28 52 -78 99
-128 122 -35 16 -78 18 -375 20 -184 1 -354 -2 -378 -7z m173 -112 c-16 -18
-59 -63 -95 -100 l-64 -68 -116 0 -115 0 85 86 c47 47 99 92 115 100 18 8 67
13 124 14 l95 0 -29 -32z m548 19 c16 -11 8 -21 -71 -100 l-88 -88 -151 3
-151 3 90 98 90 97 132 0 c90 0 138 -4 149 -13z"/>
<path d="M690 275 l0 -45 275 0 275 0 0 45 0 45 -275 0 -275 0 0 -45z"/>
</g>
</svg>
